<svg width="315" height="258" viewBox="0 0 315 258" fill="none" xmlns="http://www.w3.org/2000/svg">
<path opacity="0.5" d="M141.684 75.8557C142.235 79.3623 142.536 82.972 142.536 86.1692C142.536 90.2946 142.235 93.9043 141.684 97.4109L152.814 107.621C156.323 110.87 157.777 115.563 155.922 120.513C154.769 122.782 153.516 125.928 152.112 128.506L150.558 131.291C148.603 133.869 147.399 136.344 145.645 138.768C142.787 142.687 137.773 143.976 133.261 142.429L119.073 137.633C113.709 142.223 107.592 145.884 100.924 148.463L97.465 163.417C96.9136 168.213 93.3038 172.029 88.5912 172.648C85.2321 173.06 81.823 173.267 78.3637 173.267C74.9044 173.267 71.4952 173.06 68.1362 172.648C63.4235 172.029 59.3626 168.213 58.8111 163.417L55.3518 148.463C49.1351 145.884 43.0186 142.223 37.6291 137.633L23.4811 142.429C18.974 143.976 13.9504 142.687 11.0928 138.768C9.31799 136.344 7.66354 133.818 6.13944 131.239L4.62537 128.506C3.22661 125.928 1.95419 123.246 0.81713 120.513C-1.03986 115.563 0.382963 110.87 3.92348 107.621L15.0434 97.4109C14.4819 93.9043 13.7399 90.2946 13.7399 86.1692C13.7399 82.972 14.4819 79.3623 15.0434 75.8557L3.92348 65.6454C0.382963 61.9325 -1.03986 57.2399 0.81713 52.7535C1.95419 49.5563 3.22661 47.3338 4.62036 44.7399L6.14446 42.0326C7.66354 39.4285 9.31799 36.912 11.0928 34.4935C13.9504 30.6001 18.974 29.3058 23.4811 30.8322L37.6291 35.6279C43.0186 31.0694 49.1351 27.3978 55.3518 24.8297L58.8111 9.83907C59.3626 5.05361 63.4235 1.22215 68.1362 0.634795C71.4952 0.215552 74.9044 0 78.3637 0C81.823 0 85.2321 0.215552 88.5912 0.634279C93.3038 1.22215 96.9136 5.05361 97.465 9.83907L100.924 24.8297C107.592 27.3978 113.709 31.0694 119.073 35.6279L133.261 30.8322C137.773 29.3058 142.787 30.6001 145.645 34.4935C147.399 36.9017 148.603 39.4078 150.558 41.9965L152.112 44.776C153.516 47.3595 154.769 50.0204 155.922 52.7535C157.777 57.2399 156.323 61.9325 152.814 65.6454L141.684 75.8557ZM78.3637 61.4168C65.0779 61.4168 54.299 72.9679 54.299 86.1692C54.299 100.299 65.0779 110.922 78.3637 110.922C91.6494 110.922 102.428 100.299 102.428 86.1692C102.428 72.9679 91.6494 61.4168 78.3637 61.4168ZM241.252 242.522C237.843 243.089 234.333 243.398 230.774 243.398C227.214 243.398 223.705 243.089 220.295 242.522L210.369 253.97C206.759 257.579 202.197 259.075 197.835 257.167C195.178 255.981 192.571 254.692 190.064 253.248L187.357 251.649C184.85 249.638 182.444 248.4 180.087 246.596C176.277 243.656 175.024 238.499 176.528 233.858L181.19 219.265C176.728 213.747 173.169 207.456 170.662 200.597L156.123 197.039C151.46 196.472 147.75 192.759 147.149 187.912C146.748 184.457 146.547 180.95 146.547 177.392C146.547 173.834 146.748 170.327 147.149 166.872C147.75 162.025 151.46 157.848 156.123 157.281L170.662 153.723C173.169 147.328 176.728 141.037 181.19 135.519L176.528 120.926C175.024 116.285 176.277 111.128 180.087 108.188C182.444 106.384 184.9 104.218 187.407 103.083L190.064 101.536C192.571 100.092 194.727 98.8032 197.835 97.6172C202.197 95.7092 206.759 97.2046 210.369 100.814L220.295 112.262C223.705 111.695 227.214 111.386 230.774 111.386C234.333 111.386 237.843 111.695 241.252 112.262L251.178 100.814C254.337 97.2046 258.899 95.7092 263.712 97.6172C266.369 98.8032 268.976 100.092 271.483 101.536L274.14 103.083C276.647 104.218 279.103 106.384 281.46 108.188C285.27 111.128 286.523 116.285 285.019 120.926L280.357 135.519C284.819 141.037 288.378 147.328 290.885 153.723L305.424 157.281C310.087 157.848 313.797 162.025 314.398 166.872C314.799 170.327 315 173.834 315 177.392C315 180.95 314.799 184.457 314.398 187.912C313.797 192.759 310.087 196.472 305.424 197.039L290.885 200.597C288.378 207.456 284.819 213.747 280.357 219.265L285.019 233.858C286.523 238.499 285.27 243.656 281.46 246.596C279.103 248.4 276.697 249.638 274.19 251.649L271.483 253.248C268.976 254.692 265.918 255.981 263.712 257.167C258.899 259.075 254.337 257.579 251.178 253.97L241.252 242.522ZM254.838 177.392C254.838 163.727 244.059 152.64 230.774 152.64C217.488 152.64 206.709 163.727 206.709 177.392C206.709 191.057 217.488 202.144 230.774 202.144C244.059 202.144 254.838 191.057 254.838 177.392Z" fill="#2E8581"/>
</svg>
