<svg width="1440" height="1024" viewBox="0 0 1440 1024" fill="none" xmlns="http://www.w3.org/2000/svg">
<g clip-path="url(#clip0_285_289)">
<rect width="1440" height="1024" fill="white"/>
<g opacity="0.15">
<path d="M812.968 1085.37C855.171 1041.77 964.801 956.338 1065.69 963.446L1078.01 973.812C1077.52 994.38 1043.22 1115.48 1028.75 1115.48C1014.27 1115.48 1001.15 1114.28 995.739 1143.62C966.673 1151.02 898.984 1165.34 860.754 1163.36C861.575 1156.78 858.193 1143.62 838.093 1143.62C831.852 1136.05 818.091 1117.75 812.968 1105.12V1085.37Z" fill="#004643"/>
<path d="M1090.82 979.242C1088.36 999.81 1074.66 1057.73 1039.58 1124.86C1074.07 1111.2 1144.32 1074.61 1149.44 1037.49C1146.65 1019.72 1137.92 982.105 1125.31 973.812L1104.12 963.446L1090.82 979.242Z" fill="#004643"/>
<path d="M1009.04 1163.36C1020.21 1165.01 1043.23 1161.98 1045.99 1136.71C1080.47 1120.25 1149.44 1079.45 1149.44 1047.86C1163.07 1102.81 1154.08 1226.25 1009.04 1280.35C988.021 1275.42 945.391 1262.39 943.026 1249.75C965.031 1224.41 1009.04 1171.66 1009.04 1163.36Z" fill="#004643"/>
<path d="M930.71 1233.95C947.132 1226.71 983.128 1200.88 995.739 1155.47C961.747 1163.04 887.16 1177.38 860.754 1174.22C873.399 1194.13 905.092 1233.95 930.71 1233.95Z" fill="#004643"/>
<path d="M930.71 1264.06C929.396 1260.94 920.167 1260.81 893.762 1285.29C922.499 1288.09 981.551 1292.01 987.857 1285.29C994.163 1278.57 952.386 1268.34 930.71 1264.06Z" fill="#004643"/>
<path d="M827.747 1174.22C829.753 1177.52 836.995 1183.9 849.916 1183.11C863.874 1199.56 896.915 1235.93 917.409 1249.75L879.475 1280.35C848.602 1270.48 781.537 1237.21 760.255 1183.11V1155.47C779.304 1161.72 819.471 1174.22 827.747 1174.22Z" fill="#004643"/>
<path d="M769.615 1143.62C783.245 1150.2 813.953 1163.36 827.747 1163.36C828.404 1157.44 823.707 1139.57 799.666 1115.48L791.784 1110.55C784.394 1117.62 769.615 1134.14 769.615 1143.62Z" fill="#004643"/>
<path d="M785.38 1077.47C777.005 1063.32 760.255 1023.87 760.255 979.242C746.953 999.316 723.011 1054.67 733.652 1115.48C738.907 1124.53 750.5 1142.04 754.836 1139.67C760.255 1136.71 772.078 1111.53 785.38 1105.12C780.617 1100.84 773.95 1089.32 785.38 1077.47Z" fill="#004643"/>
<path d="M769.615 956.535C785.38 939.025 798.188 893.144 904.904 870.411C986.379 853.055 1066 890.295 1083.24 923.368L1065.69 947.156C1010.52 955.713 880.066 993.755 799.666 1077.47C787.022 1061.02 763.309 1013.8 769.615 956.535Z" fill="#004643"/>
<path d="M754.836 1155.47V1169.55C751.431 1165.03 743.375 1150.9 738.39 1130.55L750.213 1143.62L754.836 1155.47Z" fill="#004643"/>
<path d="M1096.54 939.657V930.772C1101.47 931.791 1112.11 938.37 1115.26 956.535L1104.12 947.156L1096.54 939.657Z" fill="#004643"/>
<path d="M812.968 1085.37C855.171 1041.77 964.801 956.338 1065.69 963.446L1078.01 973.812C1077.52 994.38 1043.22 1115.48 1028.75 1115.48C1014.27 1115.48 1001.15 1114.28 995.739 1143.62C966.673 1151.02 898.984 1165.34 860.754 1163.36C861.575 1156.78 858.193 1143.62 838.093 1143.62C831.852 1136.05 818.091 1117.75 812.968 1105.12V1085.37Z" stroke="#004643"/>
<path d="M1090.82 979.242C1088.36 999.81 1074.66 1057.73 1039.58 1124.86C1074.07 1111.2 1144.32 1074.61 1149.44 1037.49C1146.65 1019.72 1137.92 982.105 1125.31 973.812L1104.12 963.446L1090.82 979.242Z" stroke="#004643"/>
<path d="M1009.04 1163.36C1020.21 1165.01 1043.23 1161.98 1045.99 1136.71C1080.47 1120.25 1149.44 1079.45 1149.44 1047.86C1163.07 1102.81 1154.08 1226.25 1009.04 1280.35C988.021 1275.42 945.391 1262.39 943.026 1249.75C965.031 1224.41 1009.04 1171.66 1009.04 1163.36Z" stroke="#004643"/>
<path d="M930.71 1233.95C947.132 1226.71 983.128 1200.88 995.739 1155.47C961.747 1163.04 887.16 1177.38 860.754 1174.22C873.399 1194.13 905.092 1233.95 930.71 1233.95Z" stroke="#004643"/>
<path d="M930.71 1264.06C929.396 1260.94 920.167 1260.81 893.762 1285.29C922.499 1288.09 981.551 1292.01 987.857 1285.29C994.163 1278.57 952.386 1268.34 930.71 1264.06Z" stroke="#004643"/>
<path d="M827.747 1174.22C829.753 1177.52 836.995 1183.9 849.916 1183.11C863.874 1199.56 896.915 1235.93 917.409 1249.75L879.475 1280.35C848.602 1270.48 781.537 1237.21 760.255 1183.11V1155.47C779.304 1161.72 819.471 1174.22 827.747 1174.22Z" stroke="#004643"/>
<path d="M769.615 1143.62C783.245 1150.2 813.953 1163.36 827.747 1163.36C828.404 1157.44 823.707 1139.57 799.666 1115.48L791.784 1110.55C784.394 1117.62 769.615 1134.14 769.615 1143.62Z" stroke="#004643"/>
<path d="M785.38 1077.47C777.005 1063.32 760.255 1023.87 760.255 979.242C746.953 999.316 723.011 1054.67 733.652 1115.48C738.907 1124.53 750.5 1142.04 754.836 1139.67C760.255 1136.71 772.078 1111.53 785.38 1105.12C780.617 1100.84 773.95 1089.32 785.38 1077.47Z" stroke="#004643"/>
<path d="M769.615 956.535C785.38 939.025 798.188 893.144 904.904 870.411C986.379 853.055 1066 890.295 1083.24 923.368L1065.69 947.156C1010.52 955.713 880.066 993.755 799.666 1077.47C787.022 1061.02 763.309 1013.8 769.615 956.535Z" stroke="#004643"/>
<path d="M754.836 1155.47V1169.55C751.431 1165.03 743.375 1150.9 738.39 1130.55L750.213 1143.62L754.836 1155.47Z" stroke="#004643"/>
<path d="M1096.54 939.657V930.772C1101.47 931.791 1112.11 938.37 1115.26 956.535L1104.12 947.156L1096.54 939.657Z" stroke="#004643"/>
</g>
<g opacity="0.15">
<path d="M-74.636 719.364C-0.306293 642.568 192.777 492.106 370.475 504.625L392.166 522.882C391.299 559.107 330.894 772.396 305.4 772.396C279.906 772.396 256.79 770.285 247.267 821.952C196.075 834.992 76.8578 860.205 9.52721 856.727C10.9733 845.135 5.01537 821.952 -30.3852 821.952C-41.3756 808.621 -65.6123 776.396 -74.636 754.139V719.364Z" fill="#004643"/>
<path d="M414.725 532.445C410.387 568.67 386.266 670.678 324.489 788.915C385.225 764.862 508.954 700.411 517.977 635.033C513.06 603.735 497.674 537.488 475.462 522.882L438.152 504.625L414.725 532.445Z" fill="#004643"/>
<path d="M270.693 856.727C290.363 859.625 330.915 854.293 335.768 809.78C396.504 780.8 517.977 708.931 517.977 653.29C541.983 750.082 526.133 967.487 270.693 1062.77C233.673 1054.08 158.592 1031.13 154.427 1008.87C193.182 964.241 270.693 871.333 270.693 856.727Z" fill="#004643"/>
<path d="M132.735 981.05C161.657 968.298 225.054 922.801 247.267 842.817C187.398 856.147 56.0339 881.418 9.52721 875.854C31.7972 910.919 87.6168 981.05 132.735 981.05Z" fill="#004643"/>
<path d="M132.735 1034.08C130.421 1028.58 114.167 1028.34 67.6605 1071.47C118.274 1076.4 222.278 1083.3 233.384 1071.47C244.49 1059.63 170.912 1041.61 132.735 1034.08Z" fill="#004643"/>
<path d="M-48.6062 875.854C-45.0732 881.649 -32.3181 892.894 -9.56138 891.503C15.0224 920.482 73.2136 984.527 109.308 1008.87L42.4983 1062.77C-11.8751 1045.38 -129.993 986.787 -167.476 891.503V842.817C-133.926 853.829 -63.1829 875.854 -48.6062 875.854Z" fill="#004643"/>
<path d="M-150.99 821.952C-126.985 833.543 -72.9007 856.727 -48.6062 856.727C-47.4493 846.294 -55.721 814.823 -98.0629 772.396L-111.946 763.703C-124.96 776.164 -150.99 805.259 -150.99 821.952Z" fill="#004643"/>
<path d="M-123.225 705.454C-137.975 680.531 -167.476 611.038 -167.476 532.445C-190.903 567.801 -233.071 665.288 -214.33 772.396C-205.075 788.335 -184.656 819.169 -177.02 814.996C-167.476 809.78 -146.652 765.441 -123.225 754.139C-131.613 746.605 -143.355 726.319 -123.225 705.454Z" fill="#004643"/>
<path d="M-150.99 492.454C-123.225 461.613 -100.666 380.806 87.2847 340.769C230.781 310.201 371.01 375.789 401.378 434.038L370.475 475.935C273.296 491.005 43.5396 558.005 -98.0629 705.454C-120.333 676.474 -162.096 593.303 -150.99 492.454Z" fill="#004643"/>
<path d="M-177.02 842.817V867.618C-183.017 859.656 -197.205 834.773 -205.985 798.936L-185.161 821.952L-177.02 842.817Z" fill="#004643"/>
<path d="M424.805 462.727V447.078C433.482 448.873 452.223 460.46 457.776 492.454L438.152 475.935L424.805 462.727Z" fill="#004643"/>
<path d="M-74.636 719.364C-0.306293 642.568 192.777 492.106 370.475 504.625L392.166 522.882C391.299 559.107 330.894 772.396 305.4 772.396C279.906 772.396 256.79 770.285 247.267 821.952C196.075 834.992 76.8578 860.205 9.52721 856.727C10.9733 845.135 5.01537 821.952 -30.3852 821.952C-41.3756 808.621 -65.6123 776.396 -74.636 754.139V719.364Z" stroke="#004643"/>
<path d="M414.725 532.445C410.387 568.67 386.266 670.678 324.489 788.915C385.225 764.862 508.954 700.411 517.977 635.033C513.06 603.735 497.674 537.488 475.462 522.882L438.152 504.625L414.725 532.445Z" stroke="#004643"/>
<path d="M270.693 856.727C290.363 859.625 330.915 854.293 335.768 809.78C396.504 780.8 517.977 708.931 517.977 653.29C541.983 750.082 526.133 967.487 270.693 1062.77C233.673 1054.08 158.592 1031.13 154.427 1008.87C193.182 964.241 270.693 871.333 270.693 856.727Z" stroke="#004643"/>
<path d="M132.735 981.05C161.657 968.298 225.054 922.801 247.267 842.817C187.398 856.147 56.0339 881.418 9.52721 875.854C31.7972 910.919 87.6168 981.05 132.735 981.05Z" stroke="#004643"/>
<path d="M132.735 1034.08C130.421 1028.58 114.167 1028.34 67.6605 1071.47C118.274 1076.4 222.278 1083.3 233.384 1071.47C244.49 1059.63 170.912 1041.61 132.735 1034.08Z" stroke="#004643"/>
<path d="M-48.6062 875.854C-45.0732 881.649 -32.3181 892.894 -9.56138 891.503C15.0224 920.482 73.2136 984.527 109.308 1008.87L42.4983 1062.77C-11.8751 1045.38 -129.993 986.787 -167.476 891.503V842.817C-133.926 853.829 -63.1829 875.854 -48.6062 875.854Z" stroke="#004643"/>
<path d="M-150.99 821.952C-126.985 833.543 -72.9007 856.727 -48.6062 856.727C-47.4493 846.294 -55.721 814.823 -98.0629 772.396L-111.946 763.703C-124.96 776.164 -150.99 805.259 -150.99 821.952Z" stroke="#004643"/>
<path d="M-123.225 705.454C-137.975 680.531 -167.476 611.038 -167.476 532.445C-190.903 567.801 -233.071 665.288 -214.33 772.396C-205.075 788.335 -184.656 819.169 -177.02 814.996C-167.476 809.78 -146.652 765.441 -123.225 754.139C-131.613 746.605 -143.355 726.319 -123.225 705.454Z" stroke="#004643"/>
<path d="M-150.99 492.454C-123.225 461.613 -100.666 380.806 87.2847 340.769C230.781 310.201 371.01 375.789 401.378 434.038L370.475 475.935C273.296 491.005 43.5396 558.005 -98.0629 705.454C-120.333 676.474 -162.096 593.303 -150.99 492.454Z" stroke="#004643"/>
<path d="M-177.02 842.817V867.618C-183.017 859.656 -197.205 834.773 -205.985 798.936L-185.161 821.952L-177.02 842.817Z" stroke="#004643"/>
<path d="M424.805 462.727V447.078C433.482 448.873 452.223 460.46 457.776 492.454L438.152 475.935L424.805 462.727Z" stroke="#004643"/>
</g>
<g opacity="0.15">
<path d="M145.968 72.3717C188.171 28.7681 297.801 -56.6621 398.695 -49.5539L411.011 -39.1877C410.518 -18.62 376.222 102.483 361.747 102.483C347.271 102.483 334.147 101.284 328.739 130.619C299.673 138.024 231.984 152.339 193.754 150.364C194.575 143.783 191.193 130.619 171.093 130.619C164.852 123.051 151.091 104.754 145.968 92.1167V72.3717Z" fill="#004643"/>
<path d="M423.82 -33.7578C421.357 -13.1901 407.661 44.7286 372.585 111.862C407.07 98.2047 477.321 61.6106 482.445 24.49C479.653 6.71945 470.917 -30.8948 458.305 -39.1877L437.121 -49.5539L423.82 -33.7578Z" fill="#004643"/>
<path d="M342.041 150.364C353.209 152.01 376.234 148.982 378.989 123.709C413.474 107.254 482.445 66.4482 482.445 34.8561C496.075 89.8131 487.076 213.252 342.041 267.354C321.021 262.417 278.391 249.386 276.026 236.749C298.031 211.41 342.041 158.657 342.041 150.364Z" fill="#004643"/>
<path d="M263.71 220.953C280.132 213.713 316.128 187.88 328.739 142.466C294.747 150.035 220.16 164.383 193.754 161.224C206.399 181.134 238.092 220.953 263.71 220.953Z" fill="#004643"/>
<path d="M263.71 251.064C262.396 247.938 253.167 247.806 226.762 272.29C255.499 275.09 314.551 279.009 320.857 272.29C327.163 265.571 285.386 255.34 263.71 251.064Z" fill="#004643"/>
<path d="M160.747 161.224C162.753 164.515 169.995 170.899 182.916 170.109C196.874 186.564 229.915 222.927 250.409 236.749L212.475 267.354C181.602 257.481 114.537 224.211 93.2546 170.109V142.466C112.304 148.719 152.471 161.224 160.747 161.224Z" fill="#004643"/>
<path d="M102.615 130.619C116.245 137.201 146.953 150.364 160.747 150.364C161.404 144.441 156.707 126.572 132.666 102.483L124.784 97.5466C117.394 104.622 102.615 121.142 102.615 130.619Z" fill="#004643"/>
<path d="M118.38 64.4737C110.005 50.323 93.2546 10.8659 93.2546 -33.7578C79.9532 -13.6837 56.0106 41.6681 66.6518 102.483C71.9067 111.533 83.5002 129.04 87.8355 126.67C93.2546 123.709 105.078 98.5338 118.38 92.1167C113.617 87.8386 106.95 76.3207 118.38 64.4737Z" fill="#004643"/>
<path d="M102.615 -56.4646C118.38 -73.9752 131.188 -119.856 237.904 -142.589C319.379 -159.945 398.999 -122.705 416.242 -89.6324L398.695 -65.8435C343.519 -57.2873 213.066 -19.2453 132.666 64.4737C120.022 48.0195 96.309 0.795958 102.615 -56.4646Z" fill="#004643"/>
<path d="M87.8355 142.466V156.548C84.4308 152.028 76.3751 137.899 71.3897 117.552L83.2132 130.619L87.8355 142.466Z" fill="#004643"/>
<path d="M429.543 -73.3427V-82.228C434.47 -81.2091 445.111 -74.63 448.264 -56.4646L437.121 -65.8435L429.543 -73.3427Z" fill="#004643"/>
<path d="M145.968 72.3717C188.171 28.7681 297.801 -56.6621 398.695 -49.5539L411.011 -39.1877C410.518 -18.62 376.222 102.483 361.747 102.483C347.271 102.483 334.147 101.284 328.739 130.619C299.673 138.024 231.984 152.339 193.754 150.364C194.575 143.783 191.193 130.619 171.093 130.619C164.852 123.051 151.091 104.754 145.968 92.1167V72.3717Z" stroke="#004643"/>
<path d="M423.82 -33.7578C421.357 -13.1901 407.661 44.7286 372.585 111.862C407.07 98.2047 477.321 61.6106 482.445 24.49C479.653 6.71945 470.917 -30.8948 458.305 -39.1877L437.121 -49.5539L423.82 -33.7578Z" stroke="#004643"/>
<path d="M342.041 150.364C353.209 152.01 376.234 148.982 378.989 123.709C413.474 107.254 482.445 66.4482 482.445 34.8561C496.075 89.8131 487.076 213.252 342.041 267.354C321.021 262.417 278.391 249.386 276.026 236.749C298.031 211.41 342.041 158.657 342.041 150.364Z" stroke="#004643"/>
<path d="M263.71 220.953C280.132 213.713 316.128 187.88 328.739 142.466C294.747 150.035 220.16 164.383 193.754 161.224C206.399 181.134 238.092 220.953 263.71 220.953Z" stroke="#004643"/>
<path d="M263.71 251.064C262.396 247.938 253.167 247.806 226.762 272.29C255.499 275.09 314.551 279.009 320.857 272.29C327.163 265.571 285.386 255.34 263.71 251.064Z" stroke="#004643"/>
<path d="M160.747 161.224C162.753 164.515 169.995 170.899 182.916 170.109C196.874 186.564 229.915 222.927 250.409 236.749L212.475 267.354C181.602 257.481 114.537 224.211 93.2546 170.109V142.466C112.304 148.719 152.471 161.224 160.747 161.224Z" stroke="#004643"/>
<path d="M102.615 130.619C116.245 137.201 146.953 150.364 160.747 150.364C161.404 144.441 156.707 126.572 132.666 102.483L124.784 97.5466C117.394 104.622 102.615 121.142 102.615 130.619Z" stroke="#004643"/>
<path d="M118.38 64.4737C110.005 50.323 93.2546 10.8659 93.2546 -33.7578C79.9532 -13.6837 56.0106 41.6681 66.6518 102.483C71.9067 111.533 83.5002 129.04 87.8355 126.67C93.2546 123.709 105.078 98.5338 118.38 92.1167C113.617 87.8386 106.95 76.3207 118.38 64.4737Z" stroke="#004643"/>
<path d="M102.615 -56.4646C118.38 -73.9752 131.188 -119.856 237.904 -142.589C319.379 -159.945 398.999 -122.705 416.242 -89.6324L398.695 -65.8435C343.519 -57.2873 213.066 -19.2453 132.666 64.4737C120.022 48.0195 96.309 0.795958 102.615 -56.4646Z" stroke="#004643"/>
<path d="M87.8355 142.466V156.548C84.4308 152.028 76.3751 137.899 71.3897 117.552L83.2132 130.619L87.8355 142.466Z" stroke="#004643"/>
<path d="M429.543 -73.3427V-82.228C434.47 -81.2091 445.111 -74.63 448.264 -56.4646L437.121 -65.8435L429.543 -73.3427Z" stroke="#004643"/>
</g>
<g opacity="0.15">
<path d="M815.933 291.644C913.21 191.139 1165.9 -5.77427 1398.46 10.6099L1426.85 34.5035C1425.71 81.9114 1346.66 361.049 1313.3 361.049C1279.93 361.049 1249.68 358.285 1237.21 425.903C1170.22 442.97 1014.2 475.966 926.079 471.415C927.972 456.244 920.174 425.903 873.845 425.903C859.461 408.457 827.742 366.283 815.933 337.155V291.644Z" fill="#004643"/>
<path d="M1456.37 47.0192C1450.69 94.4271 1419.13 227.928 1338.28 382.667C1417.76 351.188 1579.69 266.84 1591.5 181.278C1585.07 140.318 1564.93 53.6184 1535.86 34.5035L1487.03 10.6099L1456.37 47.0192Z" fill="#004643"/>
<path d="M1267.87 471.415C1293.62 475.207 1346.69 468.229 1353.04 409.974C1432.53 372.048 1591.5 277.99 1591.5 205.172C1622.92 331.846 1602.17 616.369 1267.87 741.071C1219.42 729.693 1121.16 699.655 1115.71 670.528C1166.43 612.121 1267.87 490.529 1267.87 471.415Z" fill="#004643"/>
<path d="M1087.32 634.118C1125.18 617.431 1208.15 557.887 1237.21 453.21C1158.86 470.656 986.944 503.728 926.079 496.446C955.225 542.337 1028.28 634.118 1087.32 634.118Z" fill="#004643"/>
<path d="M1087.32 703.524C1084.3 696.318 1063.02 696.014 1002.16 752.449C1068.4 758.902 1204.51 767.936 1219.05 752.449C1233.58 736.961 1137.29 713.379 1087.32 703.524Z" fill="#004643"/>
<path d="M849.999 496.446C854.622 504.031 871.315 518.747 901.098 516.926C933.271 554.852 1009.43 638.67 1056.67 670.528L969.229 741.071C898.069 718.315 743.486 641.628 694.431 516.926V453.21C738.338 467.622 830.922 496.446 849.999 496.446Z" fill="#004643"/>
<path d="M716.006 425.903C747.422 441.074 818.204 471.415 849.999 471.415C851.513 457.761 840.687 416.573 785.273 361.049L767.105 349.671C750.072 365.979 716.006 404.057 716.006 425.903Z" fill="#004643"/>
<path d="M752.343 273.439C733.039 240.823 694.431 149.875 694.431 47.0192C663.772 93.2893 608.585 220.873 633.112 361.049C645.225 381.909 671.947 422.262 681.94 416.801C694.431 409.974 721.684 351.947 752.343 337.155C741.366 327.295 725.999 300.746 752.343 273.439Z" fill="#004643"/>
<path d="M716.006 -5.31915C752.343 -45.6804 781.867 -151.435 1027.84 -203.833C1215.64 -243.838 1399.16 -158.002 1438.9 -81.7697L1398.46 -26.9372C1271.28 -7.21547 970.592 80.4701 785.273 273.439C756.128 235.513 701.471 126.664 716.006 -5.31915Z" fill="#004643"/>
<path d="M681.94 453.21V485.667C674.092 475.248 655.524 442.683 644.033 395.782L671.286 425.903L681.94 453.21Z" fill="#004643"/>
<path d="M1469.56 -44.2226V-64.7029C1480.92 -62.3544 1505.45 -47.1898 1512.71 -5.31915L1487.03 -26.9372L1469.56 -44.2226Z" fill="#004643"/>
<path d="M815.933 291.644C913.21 191.139 1165.9 -5.77427 1398.46 10.6099L1426.85 34.5035C1425.71 81.9114 1346.66 361.049 1313.3 361.049C1279.93 361.049 1249.68 358.285 1237.21 425.903C1170.22 442.97 1014.2 475.966 926.079 471.415C927.972 456.244 920.174 425.903 873.845 425.903C859.461 408.457 827.742 366.283 815.933 337.155V291.644Z" stroke="#004643"/>
<path d="M1456.37 47.0192C1450.69 94.4271 1419.13 227.928 1338.28 382.667C1417.76 351.188 1579.69 266.84 1591.5 181.278C1585.07 140.318 1564.93 53.6184 1535.86 34.5035L1487.03 10.6099L1456.37 47.0192Z" stroke="#004643"/>
<path d="M1267.87 471.415C1293.62 475.207 1346.69 468.229 1353.04 409.974C1432.53 372.048 1591.5 277.99 1591.5 205.172C1622.92 331.846 1602.17 616.369 1267.87 741.071C1219.42 729.693 1121.16 699.655 1115.71 670.528C1166.43 612.121 1267.87 490.529 1267.87 471.415Z" stroke="#004643"/>
<path d="M1087.32 634.118C1125.18 617.431 1208.15 557.887 1237.21 453.21C1158.86 470.656 986.944 503.728 926.079 496.446C955.225 542.337 1028.28 634.118 1087.32 634.118Z" stroke="#004643"/>
<path d="M1087.32 703.524C1084.3 696.318 1063.02 696.014 1002.16 752.449C1068.4 758.902 1204.51 767.936 1219.05 752.449C1233.58 736.961 1137.29 713.379 1087.32 703.524Z" stroke="#004643"/>
<path d="M849.999 496.446C854.622 504.031 871.315 518.747 901.098 516.926C933.271 554.852 1009.43 638.67 1056.67 670.528L969.229 741.071C898.069 718.315 743.486 641.628 694.431 516.926V453.21C738.338 467.622 830.922 496.446 849.999 496.446Z" stroke="#004643"/>
<path d="M716.006 425.903C747.422 441.074 818.204 471.415 849.999 471.415C851.513 457.761 840.687 416.573 785.273 361.049L767.105 349.671C750.072 365.979 716.006 404.057 716.006 425.903Z" stroke="#004643"/>
<path d="M752.343 273.439C733.039 240.823 694.431 149.875 694.431 47.0192C663.772 93.2893 608.585 220.873 633.112 361.049C645.225 381.909 671.947 422.262 681.94 416.801C694.431 409.974 721.684 351.947 752.343 337.155C741.366 327.295 725.999 300.746 752.343 273.439Z" stroke="#004643"/>
<path d="M716.006 -5.31915C752.343 -45.6804 781.867 -151.435 1027.84 -203.833C1215.64 -243.838 1399.16 -158.002 1438.9 -81.7697L1398.46 -26.9372C1271.28 -7.21547 970.592 80.4701 785.273 273.439C756.128 235.513 701.471 126.664 716.006 -5.31915Z" stroke="#004643"/>
<path d="M681.94 453.21V485.667C674.092 475.248 655.524 442.683 644.033 395.782L671.286 425.903L681.94 453.21Z" stroke="#004643"/>
<path d="M1469.56 -44.2226V-64.7029C1480.92 -62.3544 1505.45 -47.1898 1512.71 -5.31915L1487.03 -26.9372L1469.56 -44.2226Z" stroke="#004643"/>
</g>
<path d="M303.584 748.072L295.648 793H284.704L292.64 748.072H303.584ZM343.835 748.072L342.363 756.712H330.395L323.995 793H313.051L319.451 756.712H307.547L309.083 748.072H343.835ZM396.46 748.072L394.988 756.712H383.02L376.62 793H365.676L372.076 756.712H360.172L361.708 748.072H396.46ZM411.361 756.712L409.76 766.056H424.417L422.945 774.312H408.289L406.497 784.36H423.073L421.537 793H394.017L401.953 748.072H429.472L427.937 756.712H411.361ZM430.818 770.472C431.586 766.035 433.228 762.088 435.746 758.632C438.306 755.133 441.463 752.424 445.218 750.504C448.972 748.541 453.026 747.56 457.378 747.56C462.711 747.56 467.02 748.968 470.306 751.784C473.634 754.6 475.511 758.44 475.938 763.304H463.906C463.351 761.469 462.327 760.083 460.833 759.144C459.383 758.163 457.591 757.672 455.458 757.672C452.087 757.672 449.164 758.845 446.69 761.192C444.215 763.496 442.636 766.589 441.954 770.472C441.74 771.667 441.634 772.712 441.634 773.608C441.634 776.595 442.466 778.963 444.13 780.712C445.794 782.461 448.076 783.336 450.978 783.336C453.068 783.336 455.01 782.845 456.802 781.864C458.636 780.883 460.172 779.475 461.41 777.64H473.442C471.308 782.504 468.087 786.344 463.778 789.16C459.468 791.933 454.647 793.32 449.314 793.32C445.474 793.32 442.124 792.573 439.266 791.08C436.407 789.587 434.21 787.475 432.674 784.744C431.138 782.013 430.37 778.835 430.37 775.208C430.37 773.587 430.519 772.008 430.818 770.472ZM524.24 748.072L516.304 793H505.36L508.624 774.376H491.6L488.336 793H477.392L485.328 748.072H496.272L493.135 765.736H510.16L513.296 748.072H524.24ZM564.396 793H553.452L540.076 765.288L535.148 793H524.204L532.14 748.072H543.084L556.46 775.912L561.388 748.072H572.332L564.396 793ZM593.705 793.448C589.908 793.448 586.558 792.659 583.657 791.08C580.798 789.501 578.58 787.283 577.001 784.424C575.422 781.565 574.633 778.28 574.633 774.568C574.633 769.32 575.764 764.648 578.025 760.552C580.286 756.413 583.422 753.192 587.433 750.888C591.486 748.584 596.073 747.432 601.193 747.432C605.033 747.432 608.404 748.221 611.305 749.8C614.206 751.336 616.446 753.533 618.025 756.392C619.604 759.208 620.393 762.451 620.393 766.12C620.393 771.368 619.262 776.083 617.001 780.264C614.74 784.403 611.582 787.645 607.529 789.992C603.476 792.296 598.868 793.448 593.705 793.448ZM595.369 783.336C598.185 783.336 600.66 782.611 602.793 781.16C604.926 779.709 606.569 777.768 607.721 775.336C608.916 772.861 609.513 770.195 609.513 767.336C609.513 764.264 608.66 761.853 606.953 760.104C605.246 758.355 602.857 757.48 599.785 757.48C596.969 757.48 594.473 758.205 592.297 759.656C590.164 761.107 588.5 763.048 587.305 765.48C586.153 767.869 585.577 770.515 585.577 773.416C585.577 776.488 586.43 778.92 588.137 780.712C589.844 782.461 592.254 783.336 595.369 783.336ZM635.058 784.68H649.394L647.922 793H622.642L630.578 748.072H641.522L635.058 784.68ZM674.518 793.448C670.72 793.448 667.371 792.659 664.47 791.08C661.611 789.501 659.392 787.283 657.814 784.424C656.235 781.565 655.446 778.28 655.446 774.568C655.446 769.32 656.576 764.648 658.838 760.552C661.099 756.413 664.235 753.192 668.246 750.888C672.299 748.584 676.886 747.432 682.006 747.432C685.846 747.432 689.216 748.221 692.118 749.8C695.019 751.336 697.259 753.533 698.838 756.392C700.416 759.208 701.206 762.451 701.206 766.12C701.206 771.368 700.075 776.083 697.814 780.264C695.552 784.403 692.395 787.645 688.342 789.992C684.288 792.296 679.68 793.448 674.518 793.448ZM676.182 783.336C678.998 783.336 681.472 782.611 683.606 781.16C685.739 779.709 687.382 777.768 688.534 775.336C689.728 772.861 690.326 770.195 690.326 767.336C690.326 764.264 689.472 761.853 687.766 760.104C686.059 758.355 683.67 757.48 680.598 757.48C677.782 757.48 675.286 758.205 673.11 759.656C670.976 761.107 669.312 763.048 668.118 765.48C666.966 767.869 666.39 770.515 666.39 773.416C666.39 776.488 667.243 778.92 668.95 780.712C670.656 782.461 673.067 783.336 676.182 783.336ZM705.63 770.472C706.398 766.035 708.041 762.088 710.558 758.632C713.118 755.133 716.297 752.424 720.094 750.504C723.891 748.541 728.009 747.56 732.446 747.56C737.822 747.56 742.131 748.861 745.374 751.464C748.659 754.067 750.451 757.672 750.75 762.28H738.718C738.163 760.787 737.182 759.656 735.774 758.888C734.409 758.077 732.723 757.672 730.718 757.672C727.177 757.672 724.126 758.845 721.566 761.192C719.049 763.496 717.449 766.589 716.766 770.472C716.553 771.752 716.446 772.861 716.446 773.8C716.446 776.957 717.363 779.389 719.198 781.096C721.033 782.803 723.635 783.656 727.006 783.656C729.737 783.656 732.147 782.973 734.238 781.608C736.329 780.2 738.014 778.216 739.294 775.656H725.47L726.814 767.656H750.622L748.83 777.832C747.55 780.563 745.715 783.101 743.326 785.448C740.979 787.795 738.185 789.693 734.942 791.144C731.699 792.595 728.201 793.32 724.446 793.32C720.563 793.32 717.15 792.573 714.206 791.08C711.305 789.544 709.065 787.411 707.486 784.68C705.95 781.949 705.182 778.771 705.182 775.144C705.182 773.907 705.331 772.349 705.63 770.472ZM798.668 748.072L777.868 778.152L775.18 793H764.236L766.924 778.152L756.62 748.072H769.036L774.412 766.824L786.38 748.072H798.668ZM836.258 748.072C840.909 748.072 844.45 749.139 846.882 751.272C849.314 753.363 850.53 756.093 850.53 759.464C850.53 760.445 850.445 761.363 850.274 762.216C849.762 765.203 848.461 767.869 846.37 770.216C844.279 772.563 841.485 774.227 837.986 775.208L845.218 793H832.866L826.53 776.04H823.906L820.898 793H809.954L817.89 748.072H836.258ZM839.074 762.664C839.159 761.981 839.202 761.533 839.202 761.32C839.202 759.955 838.754 758.909 837.858 758.184C837.005 757.416 835.725 757.032 834.018 757.032H827.234L825.25 768.296H832.034C834.039 768.296 835.618 767.805 836.77 766.824C837.965 765.843 838.733 764.456 839.074 762.664ZM895.224 775.208C893.347 778.152 891.576 780.563 889.912 782.44L898.872 793H886.136L882.68 788.968C878.029 792.125 872.803 793.704 867 793.704C862.307 793.704 858.595 792.68 855.864 790.632C853.176 788.541 851.832 785.725 851.832 782.184C851.832 778.813 852.92 775.805 855.096 773.16C857.315 770.515 860.259 768.403 863.928 766.824C862.605 764.776 861.944 762.771 861.944 760.808C861.944 758.205 862.627 755.901 863.992 753.896C865.357 751.848 867.256 750.269 869.688 749.16C872.12 748.051 874.872 747.496 877.944 747.496C881.784 747.496 884.728 748.371 886.776 750.12C888.867 751.869 889.912 754.088 889.912 756.776C889.912 757.331 889.848 757.971 889.72 758.696H879.48C879.523 758.525 879.544 758.269 879.544 757.928C879.544 757.117 879.267 756.499 878.712 756.072C878.157 755.603 877.453 755.368 876.6 755.368C875.448 755.368 874.467 755.752 873.656 756.52C872.845 757.245 872.44 758.184 872.44 759.336C872.44 760.829 873.293 762.643 875 764.776L884.024 775.464L885.176 773.672L888.248 769.64H899.256L895.224 775.208ZM869.176 784.872C872.035 784.872 874.68 784.083 877.112 782.504L868.856 772.84C867.021 773.693 865.592 774.76 864.568 776.04C863.544 777.277 863.032 778.643 863.032 780.136C863.032 781.544 863.565 782.696 864.632 783.592C865.741 784.445 867.256 784.872 869.176 784.872ZM962.208 748.072L954.272 793H943.328L948.128 766.056L933.28 793H924.448L919.072 765.928L914.336 793H903.392L911.328 748.072H924.256L931.424 779.176L949.344 748.072H962.208ZM994.81 793.448C989.946 793.448 985.978 792.403 982.906 790.312C979.877 788.179 978.362 785.171 978.362 781.288C978.362 780.904 978.405 780.328 978.49 779.56H989.882C989.754 781.181 990.138 782.461 991.034 783.4C991.93 784.339 993.295 784.808 995.13 784.808C996.794 784.808 998.095 784.445 999.034 783.72C1000.02 782.995 1000.51 781.971 1000.51 780.648C1000.51 779.283 999.887 778.173 998.65 777.32C997.455 776.467 995.578 775.507 993.018 774.44C990.543 773.416 988.517 772.456 986.938 771.56C985.402 770.621 984.058 769.363 982.906 767.784C981.754 766.205 981.178 764.221 981.178 761.832C981.135 758.888 981.861 756.328 983.354 754.152C984.847 751.976 986.917 750.312 989.562 749.16C992.207 748.008 995.237 747.432 998.65 747.432C1001.72 747.432 1004.45 747.923 1006.84 748.904C1009.23 749.843 1011.09 751.229 1012.41 753.064C1013.73 754.856 1014.39 756.989 1014.39 759.464C1014.39 760.104 1014.37 760.573 1014.33 760.872H1002.68C1002.72 760.701 1002.75 760.445 1002.75 760.104C1002.75 758.909 1002.32 757.949 1001.47 757.224C1000.66 756.456 999.525 756.072 998.074 756.072C996.538 756.072 995.279 756.456 994.298 757.224C993.359 757.949 992.89 758.952 992.89 760.232C992.89 761.512 993.487 762.6 994.682 763.496C995.877 764.349 997.733 765.352 1000.25 766.504C1002.77 767.656 1004.82 768.723 1006.39 769.704C1008.02 770.685 1009.4 772.008 1010.55 773.672C1011.71 775.293 1012.28 777.299 1012.28 779.688C1012.28 782.333 1011.58 784.701 1010.17 786.792C1008.76 788.883 1006.74 790.525 1004.09 791.72C1001.44 792.872 998.351 793.448 994.81 793.448ZM1021.82 793.512C1020.12 793.512 1018.75 793.064 1017.73 792.168C1016.75 791.229 1016.25 790.056 1016.25 788.648C1016.25 786.685 1016.98 785.021 1018.43 783.656C1019.92 782.291 1021.76 781.608 1023.93 781.608C1025.6 781.608 1026.92 782.077 1027.9 783.016C1028.88 783.912 1029.37 785.085 1029.37 786.536C1029.37 788.456 1028.63 790.099 1027.13 791.464C1025.68 792.829 1023.91 793.512 1021.82 793.512ZM1064.21 785.064H1047.44L1043.34 793H1031.88L1056.08 748.072H1068.75L1077.07 793H1065.49L1064.21 785.064ZM1062.93 776.744L1060.3 760.104L1051.73 776.744H1062.93ZM1087.07 793.512C1085.37 793.512 1084 793.064 1082.98 792.168C1082 791.229 1081.5 790.056 1081.5 788.648C1081.5 786.685 1082.23 785.021 1083.68 783.656C1085.17 782.291 1087.01 781.608 1089.18 781.608C1090.85 781.608 1092.17 782.077 1093.15 783.016C1094.13 783.912 1094.62 785.085 1094.62 786.536C1094.62 788.456 1093.88 790.099 1092.38 791.464C1090.93 792.829 1089.16 793.512 1087.07 793.512ZM1117.94 793.448C1113.07 793.448 1109.1 792.403 1106.03 790.312C1103 788.179 1101.49 785.171 1101.49 781.288C1101.49 780.904 1101.53 780.328 1101.62 779.56H1113.01C1112.88 781.181 1113.26 782.461 1114.16 783.4C1115.06 784.339 1116.42 784.808 1118.26 784.808C1119.92 784.808 1121.22 784.445 1122.16 783.72C1123.14 782.995 1123.63 781.971 1123.63 780.648C1123.63 779.283 1123.01 778.173 1121.78 777.32C1120.58 776.467 1118.7 775.507 1116.14 774.44C1113.67 773.416 1111.64 772.456 1110.06 771.56C1108.53 770.621 1107.18 769.363 1106.03 767.784C1104.88 766.205 1104.3 764.221 1104.3 761.832C1104.26 758.888 1104.99 756.328 1106.48 754.152C1107.97 751.976 1110.04 750.312 1112.69 749.16C1115.33 748.008 1118.36 747.432 1121.78 747.432C1124.85 747.432 1127.58 747.923 1129.97 748.904C1132.36 749.843 1134.21 751.229 1135.53 753.064C1136.86 754.856 1137.52 756.989 1137.52 759.464C1137.52 760.104 1137.5 760.573 1137.46 760.872H1125.81C1125.85 760.701 1125.87 760.445 1125.87 760.104C1125.87 758.909 1125.44 757.949 1124.59 757.224C1123.78 756.456 1122.65 756.072 1121.2 756.072C1119.66 756.072 1118.4 756.456 1117.42 757.224C1116.48 757.949 1116.02 758.952 1116.02 760.232C1116.02 761.512 1116.61 762.6 1117.81 763.496C1119 764.349 1120.86 765.352 1123.38 766.504C1125.89 767.656 1127.94 768.723 1129.52 769.704C1131.14 770.685 1132.53 772.008 1133.68 773.672C1134.83 775.293 1135.41 777.299 1135.41 779.688C1135.41 782.333 1134.7 784.701 1133.3 786.792C1131.89 788.883 1129.86 790.525 1127.22 791.72C1124.57 792.872 1121.48 793.448 1117.94 793.448Z" fill="#004643"/>
<path d="M556.439 467.453C607.123 415.088 738.782 312.491 859.95 321.028L874.742 333.477C874.15 358.177 832.961 503.615 815.577 503.615C798.193 503.615 782.432 502.175 775.938 537.406C741.031 546.298 659.739 563.49 613.828 561.119C614.814 553.214 610.751 537.406 586.612 537.406C579.118 528.316 562.592 506.342 556.439 491.166V467.453Z" fill="#004643"/>
<path d="M890.124 339.998C887.166 364.698 870.718 434.256 828.594 514.879C870.008 498.477 954.376 454.53 960.529 409.95C957.177 388.609 946.685 343.436 931.539 333.477L906.098 321.028L890.124 339.998Z" fill="#004643"/>
<path d="M791.912 561.119C805.324 563.095 832.976 559.459 836.285 529.106C877.7 509.346 960.529 460.34 960.529 422.399C976.898 488.4 966.091 636.644 791.912 701.616C766.668 695.688 715.472 680.038 712.632 664.862C739.059 634.43 791.912 571.078 791.912 561.119Z" fill="#004643"/>
<path d="M697.841 645.891C717.562 637.197 760.792 606.173 775.938 551.633C735.114 560.723 645.54 577.955 613.828 574.161C629.013 598.071 667.076 645.891 697.841 645.891Z" fill="#004643"/>
<path d="M697.841 682.053C696.263 678.299 685.18 678.141 653.468 707.544C687.98 710.907 758.898 715.614 766.471 707.544C774.044 699.475 723.873 687.188 697.841 682.053Z" fill="#004643"/>
<path d="M574.188 574.161C576.597 578.113 585.295 585.78 600.812 584.831C617.575 604.592 657.254 648.263 681.867 664.862L636.31 701.616C599.234 689.76 518.692 649.804 493.133 584.831V551.633C516.01 559.142 564.248 574.161 574.188 574.161Z" fill="#004643"/>
<path d="M504.374 537.406C520.743 545.31 557.622 561.119 574.188 561.119C574.977 554.005 569.337 532.545 540.465 503.615L530.998 497.687C522.124 506.184 504.374 526.024 504.374 537.406Z" fill="#004643"/>
<path d="M523.307 457.968C513.249 440.974 493.133 393.588 493.133 339.998C477.159 364.106 448.405 430.58 461.185 503.615C467.495 514.484 481.419 535.509 486.625 532.663C493.133 529.106 507.333 498.873 523.307 491.166C517.588 486.028 509.581 472.196 523.307 457.968Z" fill="#004643"/>
<path d="M504.374 312.728C523.307 291.699 538.69 236.598 666.849 209.297C764.696 188.454 860.316 233.177 881.023 272.895L859.95 301.465C793.687 311.74 637.02 357.426 540.465 457.968C525.279 438.208 496.801 381.495 504.374 312.728Z" fill="#004643"/>
<path d="M486.625 551.633V568.545C482.536 563.116 472.862 546.149 466.875 521.712L481.074 537.406L486.625 551.633Z" fill="#004643"/>
<path d="M896.997 292.458V281.788C902.914 283.011 915.693 290.912 919.48 312.728L906.098 301.465L896.997 292.458Z" fill="#004643"/>
<path d="M556.439 467.453C607.123 415.088 738.782 312.491 859.95 321.028L874.742 333.477C874.15 358.177 832.961 503.615 815.577 503.615C798.193 503.615 782.432 502.175 775.938 537.406C741.031 546.298 659.739 563.49 613.828 561.119C614.814 553.214 610.751 537.406 586.612 537.406C579.118 528.316 562.592 506.342 556.439 491.166V467.453Z" stroke="#004643"/>
<path d="M890.124 339.998C887.166 364.698 870.718 434.256 828.594 514.879C870.008 498.477 954.376 454.53 960.529 409.95C957.177 388.609 946.685 343.436 931.539 333.477L906.098 321.028L890.124 339.998Z" stroke="#004643"/>
<path d="M791.912 561.119C805.324 563.095 832.976 559.459 836.285 529.106C877.7 509.346 960.529 460.34 960.529 422.399C976.898 488.4 966.091 636.644 791.912 701.616C766.668 695.688 715.472 680.038 712.632 664.862C739.059 634.43 791.912 571.078 791.912 561.119Z" stroke="#004643"/>
<path d="M697.841 645.891C717.562 637.197 760.792 606.173 775.938 551.633C735.114 560.723 645.54 577.955 613.828 574.161C629.013 598.071 667.076 645.891 697.841 645.891Z" stroke="#004643"/>
<path d="M697.841 682.053C696.263 678.299 685.18 678.141 653.468 707.544C687.98 710.907 758.898 715.614 766.471 707.544C774.044 699.475 723.873 687.188 697.841 682.053Z" stroke="#004643"/>
<path d="M574.188 574.161C576.597 578.113 585.295 585.78 600.812 584.831C617.575 604.592 657.254 648.263 681.867 664.862L636.31 701.616C599.234 689.76 518.692 649.804 493.133 584.831V551.633C516.01 559.142 564.248 574.161 574.188 574.161Z" stroke="#004643"/>
<path d="M504.374 537.406C520.743 545.31 557.622 561.119 574.188 561.119C574.977 554.005 569.337 532.545 540.465 503.615L530.998 497.687C522.124 506.184 504.374 526.024 504.374 537.406Z" stroke="#004643"/>
<path d="M523.307 457.968C513.249 440.974 493.133 393.588 493.133 339.998C477.159 364.106 448.405 430.58 461.185 503.615C467.495 514.484 481.419 535.509 486.625 532.663C493.133 529.106 507.333 498.873 523.307 491.166C517.588 486.028 509.581 472.196 523.307 457.968Z" stroke="#004643"/>
<path d="M504.374 312.728C523.307 291.699 538.69 236.598 666.849 209.297C764.696 188.454 860.316 233.177 881.023 272.895L859.95 301.465C793.687 311.74 637.02 357.426 540.465 457.968C525.279 438.208 496.801 381.495 504.374 312.728Z" stroke="#004643"/>
<path d="M486.625 551.633V568.545C482.536 563.116 472.862 546.149 466.875 521.712L481.074 537.406L486.625 551.633Z" stroke="#004643"/>
<path d="M896.997 292.458V281.788C902.914 283.011 915.693 290.912 919.48 312.728L906.098 301.465L896.997 292.458Z" stroke="#004643"/>
</g>
<defs>
<clipPath id="clip0_285_289">
<rect width="1440" height="1024" fill="white"/>
</clipPath>
</defs>
</svg>
