<svg xmlns="http://www.w3.org/2000/svg" width="1440" height="1024" fill="none" viewBox="0 0 1440 1024"><g clip-path="url(#clip0_723_266)"><rect width="1440" height="1024" fill="#fff"/><g opacity=".15"><path fill="#004643" d="M830.795 1054.08C882.178 1003.78 1015.65 905.22 1138.49 913.42L1153.48 925.379C1152.88 949.107 1111.13 1088.82 1093.5 1088.82C1075.88 1088.82 1059.9 1087.44 1053.32 1121.28C1017.93 1129.82 935.519 1146.34 888.975 1144.06C889.975 1136.47 885.856 1121.28 861.385 1121.28C853.787 1112.55 837.033 1091.44 830.795 1076.86V1054.08Z"/><path fill="#004643" d="M1169.08 931.643C1166.08 955.372 1149.41 1022.19 1106.7 1099.64C1148.69 1083.88 1234.22 1041.67 1240.45 998.842C1237.06 978.341 1226.42 934.946 1211.06 925.379L1185.27 913.42L1169.08 931.643Z"/><path fill="#004643" d="M1069.51 1144.06C1083.11 1145.96 1111.14 1142.46 1114.5 1113.31C1156.48 1094.32 1240.45 1047.25 1240.45 1010.8C1257.05 1074.2 1246.09 1216.61 1069.51 1279.03C1043.92 1273.33 992.02 1258.3 989.141 1243.72C1015.93 1214.48 1069.51 1153.63 1069.51 1144.06Z"/><path fill="#004643" d="M974.146 1225.49C994.139 1217.14 1037.96 1187.34 1053.32 1134.95C1011.93 1143.68 921.124 1160.23 888.975 1156.59C904.37 1179.56 942.957 1225.49 974.146 1225.49Z"/><path fill="#004643" d="M974.146 1260.23C972.546 1256.63 961.31 1256.47 929.161 1284.72C964.149 1287.95 1036.04 1292.47 1043.72 1284.72C1051.4 1276.97 1000.54 1265.16 974.146 1260.23Z"/><path fill="#004643" d="M848.789 1156.59C851.231 1160.38 860.049 1167.75 875.78 1166.84C892.774 1185.82 933 1227.77 957.951 1243.72L911.767 1279.03C874.18 1267.64 792.528 1229.25 766.617 1166.84V1134.95C789.809 1142.16 838.712 1156.59 848.789 1156.59Z"/><path fill="#004643" d="M778.013 1121.28C794.608 1128.87 831.995 1144.06 848.789 1144.06C849.589 1137.23 843.871 1116.61 814.601 1088.82L805.004 1083.12C796.007 1091.29 778.013 1110.35 778.013 1121.28Z"/><path fill="#004643" d="M797.207 1044.97C787.01 1028.64 766.617 983.124 766.617 931.643C750.423 954.802 721.273 1018.66 734.229 1088.82C740.626 1099.26 754.741 1119.46 760.02 1116.72C766.617 1113.31 781.012 1084.26 797.207 1076.86C791.409 1071.92 783.292 1058.64 797.207 1044.97Z"/><path fill="#004643" d="M778.013 905.447C797.207 885.246 812.801 832.315 942.727 806.089C1041.92 786.066 1138.86 829.028 1159.85 867.183L1138.49 894.627C1071.31 904.498 912.487 948.386 814.601 1044.97C799.206 1025.99 770.336 971.507 778.013 905.447Z"/><path fill="#004643" d="M760.02 1134.95V1151.19C755.874 1145.98 746.067 1129.68 739.997 1106.2L754.392 1121.28L760.02 1134.95Z"/><path fill="#004643" d="M1176.05 885.976V875.725C1182.04 876.901 1195 884.491 1198.84 905.447L1185.27 894.627L1176.05 885.976Z"/><path stroke="#004643" d="M830.795 1054.08C882.178 1003.78 1015.65 905.22 1138.49 913.42L1153.48 925.379C1152.88 949.107 1111.13 1088.82 1093.5 1088.82C1075.88 1088.82 1059.9 1087.44 1053.32 1121.28C1017.93 1129.82 935.519 1146.34 888.975 1144.06C889.975 1136.47 885.856 1121.28 861.385 1121.28C853.787 1112.55 837.033 1091.44 830.795 1076.86V1054.08Z"/><path stroke="#004643" d="M1169.08 931.643C1166.08 955.372 1149.41 1022.19 1106.7 1099.64C1148.69 1083.88 1234.22 1041.67 1240.45 998.842C1237.06 978.341 1226.42 934.946 1211.06 925.379L1185.27 913.42L1169.08 931.643Z"/><path stroke="#004643" d="M1069.51 1144.06C1083.11 1145.96 1111.14 1142.46 1114.5 1113.31C1156.48 1094.32 1240.45 1047.25 1240.45 1010.8C1257.05 1074.2 1246.09 1216.61 1069.51 1279.03C1043.92 1273.33 992.02 1258.3 989.141 1243.72C1015.93 1214.48 1069.51 1153.63 1069.51 1144.06Z"/><path stroke="#004643" d="M974.146 1225.49C994.139 1217.14 1037.96 1187.34 1053.32 1134.95C1011.93 1143.68 921.124 1160.23 888.975 1156.59C904.37 1179.56 942.957 1225.49 974.146 1225.49Z"/><path stroke="#004643" d="M974.146 1260.23C972.546 1256.63 961.31 1256.47 929.161 1284.72C964.149 1287.95 1036.04 1292.47 1043.72 1284.72C1051.4 1276.97 1000.54 1265.16 974.146 1260.23Z"/><path stroke="#004643" d="M848.789 1156.59C851.231 1160.38 860.049 1167.75 875.78 1166.84C892.774 1185.82 933 1227.77 957.951 1243.72L911.767 1279.03C874.18 1267.64 792.528 1229.25 766.617 1166.84V1134.95C789.809 1142.16 838.712 1156.59 848.789 1156.59Z"/><path stroke="#004643" d="M778.013 1121.28C794.608 1128.87 831.995 1144.06 848.789 1144.06C849.589 1137.23 843.871 1116.61 814.601 1088.82L805.004 1083.12C796.007 1091.29 778.013 1110.35 778.013 1121.28Z"/><path stroke="#004643" d="M797.207 1044.97C787.01 1028.64 766.617 983.124 766.617 931.643C750.423 954.802 721.273 1018.66 734.229 1088.82C740.626 1099.26 754.741 1119.46 760.02 1116.72C766.617 1113.31 781.012 1084.26 797.207 1076.86C791.409 1071.92 783.292 1058.64 797.207 1044.97Z"/><path stroke="#004643" d="M778.013 905.447C797.207 885.246 812.801 832.315 942.727 806.089C1041.92 786.066 1138.86 829.028 1159.85 867.183L1138.49 894.627C1071.31 904.498 912.487 948.386 814.601 1044.97C799.206 1025.99 770.336 971.507 778.013 905.447Z"/><path stroke="#004643" d="M760.02 1134.95V1151.19C755.874 1145.98 746.067 1129.68 739.997 1106.2L754.392 1121.28L760.02 1134.95Z"/><path stroke="#004643" d="M1176.05 885.976V875.725C1182.04 876.901 1195 884.491 1198.84 905.447L1185.27 894.627L1176.05 885.976Z"/></g><g opacity=".15"><path fill="#004643" d="M-74.636 719.364C-0.30629 642.568 192.777 492.106 370.475 504.625L392.166 522.882C391.299 559.107 330.894 772.396 305.4 772.396C279.906 772.396 256.79 770.285 247.267 821.952C196.075 834.992 76.8578 860.205 9.52721 856.727C10.9733 845.135 5.01537 821.952 -30.3852 821.952C-41.3756 808.621 -65.6123 776.396 -74.636 754.139V719.364Z"/><path fill="#004643" d="M414.725 532.445C410.387 568.67 386.266 670.678 324.489 788.915C385.225 764.862 508.953 700.411 517.977 635.033C513.06 603.735 497.674 537.488 475.462 522.882L438.152 504.625L414.725 532.445Z"/><path fill="#004643" d="M270.693 856.727C290.363 859.625 330.915 854.293 335.768 809.78C396.505 780.8 517.977 708.931 517.977 653.29C541.983 750.082 526.133 967.487 270.693 1062.77C233.673 1054.08 158.592 1031.13 154.427 1008.87C193.182 964.241 270.693 871.333 270.693 856.727Z"/><path fill="#004643" d="M132.735 981.049C161.657 968.299 225.054 922.801 247.267 842.817C187.398 856.147 56.0339 881.418 9.52721 875.854C31.7972 910.919 87.6168 981.049 132.735 981.049Z"/><path fill="#004643" d="M132.735 1034.08C130.421 1028.58 114.167 1028.34 67.6606 1071.47C118.274 1076.4 222.278 1083.3 233.384 1071.47C244.49 1059.63 170.912 1041.61 132.735 1034.08Z"/><path fill="#004643" d="M-48.6062 875.854C-45.0732 881.649 -32.3181 892.894 -9.56139 891.503C15.0224 920.482 73.2136 984.527 109.308 1008.87L42.4984 1062.77C-11.8751 1045.38 -129.993 986.787 -167.476 891.503V842.817C-133.926 853.829 -63.1829 875.854 -48.6062 875.854Z"/><path fill="#004643" d="M-150.99 821.952C-126.985 833.543 -72.9007 856.727 -48.6062 856.727C-47.4493 846.294 -55.721 814.823 -98.0629 772.396L-111.946 763.703C-124.96 776.164 -150.99 805.259 -150.99 821.952Z"/><path fill="#004643" d="M-123.225 705.454C-137.975 680.531 -167.476 611.038 -167.476 532.445C-190.903 567.801 -233.071 665.288 -214.33 772.396C-205.075 788.335 -184.656 819.169 -177.02 814.996C-167.476 809.78 -146.652 765.441 -123.225 754.139C-131.613 746.605 -143.355 726.319 -123.225 705.454Z"/><path fill="#004643" d="M-150.99 492.454C-123.225 461.613 -100.666 380.806 87.2847 340.769C230.781 310.201 371.01 375.789 401.378 434.038L370.475 475.935C273.296 491.005 43.5396 558.005 -98.0629 705.454C-120.333 676.474 -162.096 593.303 -150.99 492.454Z"/><path fill="#004643" d="M-177.02 842.817V867.618C-183.017 859.656 -197.205 834.773 -205.985 798.936L-185.161 821.952L-177.02 842.817Z"/><path fill="#004643" d="M424.805 462.727V447.078C433.482 448.873 452.223 460.46 457.776 492.454L438.152 475.935L424.805 462.727Z"/><path stroke="#004643" d="M-74.636 719.364C-0.30629 642.568 192.777 492.106 370.475 504.625L392.166 522.882C391.299 559.107 330.894 772.396 305.4 772.396C279.906 772.396 256.79 770.285 247.267 821.952C196.075 834.992 76.8578 860.205 9.52721 856.727C10.9733 845.135 5.01537 821.952 -30.3852 821.952C-41.3756 808.621 -65.6123 776.396 -74.636 754.139V719.364Z"/><path stroke="#004643" d="M414.725 532.445C410.387 568.67 386.266 670.678 324.489 788.915C385.225 764.862 508.953 700.411 517.977 635.033C513.06 603.735 497.674 537.488 475.462 522.882L438.152 504.625L414.725 532.445Z"/><path stroke="#004643" d="M270.693 856.727C290.363 859.625 330.915 854.293 335.768 809.78C396.505 780.8 517.977 708.931 517.977 653.29C541.983 750.082 526.133 967.487 270.693 1062.77C233.673 1054.08 158.592 1031.13 154.427 1008.87C193.182 964.241 270.693 871.333 270.693 856.727Z"/><path stroke="#004643" d="M132.735 981.049C161.657 968.299 225.054 922.801 247.267 842.817C187.398 856.147 56.0339 881.418 9.52721 875.854C31.7972 910.919 87.6168 981.049 132.735 981.049Z"/><path stroke="#004643" d="M132.735 1034.08C130.421 1028.58 114.167 1028.34 67.6606 1071.47C118.274 1076.4 222.278 1083.3 233.384 1071.47C244.49 1059.63 170.912 1041.61 132.735 1034.08Z"/><path stroke="#004643" d="M-48.6062 875.854C-45.0732 881.649 -32.3181 892.894 -9.56139 891.503C15.0224 920.482 73.2136 984.527 109.308 1008.87L42.4984 1062.77C-11.8751 1045.38 -129.993 986.787 -167.476 891.503V842.817C-133.926 853.829 -63.1829 875.854 -48.6062 875.854Z"/><path stroke="#004643" d="M-150.99 821.952C-126.985 833.543 -72.9007 856.727 -48.6062 856.727C-47.4493 846.294 -55.721 814.823 -98.0629 772.396L-111.946 763.703C-124.96 776.164 -150.99 805.259 -150.99 821.952Z"/><path stroke="#004643" d="M-123.225 705.454C-137.975 680.531 -167.476 611.038 -167.476 532.445C-190.903 567.801 -233.071 665.288 -214.33 772.396C-205.075 788.335 -184.656 819.169 -177.02 814.996C-167.476 809.78 -146.652 765.441 -123.225 754.139C-131.613 746.605 -143.355 726.319 -123.225 705.454Z"/><path stroke="#004643" d="M-150.99 492.454C-123.225 461.613 -100.666 380.806 87.2847 340.769C230.781 310.201 371.01 375.789 401.378 434.038L370.475 475.935C273.296 491.005 43.5396 558.005 -98.0629 705.454C-120.333 676.474 -162.096 593.303 -150.99 492.454Z"/><path stroke="#004643" d="M-177.02 842.817V867.618C-183.017 859.656 -197.205 834.773 -205.985 798.936L-185.161 821.952L-177.02 842.817Z"/><path stroke="#004643" d="M424.805 462.727V447.078C433.482 448.873 452.223 460.46 457.776 492.454L438.152 475.935L424.805 462.727Z"/></g><g opacity=".15"><path fill="#004643" d="M145.968 72.3717C188.171 28.7681 297.801 -56.6621 398.695 -49.5539L411.011 -39.1877C410.518 -18.62 376.222 102.483 361.747 102.483C347.271 102.483 334.147 101.284 328.739 130.619C299.673 138.024 231.984 152.339 193.754 150.364C194.575 143.783 191.193 130.619 171.093 130.619C164.852 123.051 151.091 104.754 145.968 92.1167V72.3717Z"/><path fill="#004643" d="M423.82 -33.7578C421.357 -13.1901 407.661 44.7286 372.585 111.862C407.07 98.2047 477.321 61.6106 482.445 24.49C479.653 6.71945 470.917 -30.8948 458.305 -39.1877L437.121 -49.5539L423.82 -33.7578Z"/><path fill="#004643" d="M342.041 150.364C353.209 152.01 376.234 148.982 378.989 123.709C413.474 107.255 482.445 66.4482 482.445 34.8561C496.075 89.8131 487.076 213.252 342.041 267.354C321.021 262.417 278.391 249.386 276.026 236.749C298.031 211.41 342.041 158.657 342.041 150.364Z"/><path fill="#004643" d="M263.71 220.953C280.132 213.713 316.128 187.88 328.739 142.466C294.747 150.035 220.16 164.383 193.754 161.224C206.399 181.134 238.092 220.953 263.71 220.953Z"/><path fill="#004643" d="M263.71 251.064C262.396 247.938 253.167 247.806 226.762 272.29C255.499 275.09 314.551 279.009 320.857 272.29C327.163 265.571 285.386 255.34 263.71 251.064Z"/><path fill="#004643" d="M160.747 161.224C162.753 164.515 169.995 170.899 182.916 170.109C196.874 186.564 229.915 222.927 250.409 236.749L212.475 267.354C181.602 257.481 114.537 224.211 93.2546 170.109V142.466C112.304 148.719 152.471 161.224 160.747 161.224Z"/><path fill="#004643" d="M102.615 130.619C116.245 137.201 146.953 150.364 160.747 150.364C161.404 144.441 156.707 126.572 132.666 102.483L124.784 97.5466C117.394 104.622 102.615 121.142 102.615 130.619Z"/><path fill="#004643" d="M118.38 64.4736C110.005 50.323 93.2546 10.8659 93.2546 -33.7578C79.9532 -13.6837 56.0106 41.6682 66.6518 102.483C71.9067 111.533 83.5002 129.04 87.8355 126.67C93.2546 123.709 105.078 98.5338 118.38 92.1167C113.617 87.8386 106.95 76.3207 118.38 64.4736Z"/><path fill="#004643" d="M102.615 -56.4646C118.38 -73.9752 131.188 -119.856 237.904 -142.589C319.379 -159.945 398.999 -122.705 416.242 -89.6324L398.695 -65.8435C343.519 -57.2873 213.066 -19.2453 132.666 64.4736C120.022 48.0195 96.309 0.795959 102.615 -56.4646Z"/><path fill="#004643" d="M87.8355 142.466V156.548C84.4308 152.027 76.3751 137.9 71.3897 117.552L83.2132 130.619L87.8355 142.466Z"/><path fill="#004643" d="M429.543 -73.3428V-82.228C434.47 -81.2091 445.111 -74.63 448.264 -56.4646L437.121 -65.8435L429.543 -73.3428Z"/><path stroke="#004643" d="M145.968 72.3717C188.171 28.7681 297.801 -56.6621 398.695 -49.5539L411.011 -39.1877C410.518 -18.62 376.222 102.483 361.747 102.483C347.271 102.483 334.147 101.284 328.739 130.619C299.673 138.024 231.984 152.339 193.754 150.364C194.575 143.783 191.193 130.619 171.093 130.619C164.852 123.051 151.091 104.754 145.968 92.1167V72.3717Z"/><path stroke="#004643" d="M423.82 -33.7578C421.357 -13.1901 407.661 44.7286 372.585 111.862C407.07 98.2047 477.321 61.6106 482.445 24.49C479.653 6.71945 470.917 -30.8948 458.305 -39.1877L437.121 -49.5539L423.82 -33.7578Z"/><path stroke="#004643" d="M342.041 150.364C353.209 152.01 376.234 148.982 378.989 123.709C413.474 107.255 482.445 66.4482 482.445 34.8561C496.075 89.8131 487.076 213.252 342.041 267.354C321.021 262.417 278.391 249.386 276.026 236.749C298.031 211.41 342.041 158.657 342.041 150.364Z"/><path stroke="#004643" d="M263.71 220.953C280.132 213.713 316.128 187.88 328.739 142.466C294.747 150.035 220.16 164.383 193.754 161.224C206.399 181.134 238.092 220.953 263.71 220.953Z"/><path stroke="#004643" d="M263.71 251.064C262.396 247.938 253.167 247.806 226.762 272.29C255.499 275.09 314.551 279.009 320.857 272.29C327.163 265.571 285.386 255.34 263.71 251.064Z"/><path stroke="#004643" d="M160.747 161.224C162.753 164.515 169.995 170.899 182.916 170.109C196.874 186.564 229.915 222.927 250.409 236.749L212.475 267.354C181.602 257.481 114.537 224.211 93.2546 170.109V142.466C112.304 148.719 152.471 161.224 160.747 161.224Z"/><path stroke="#004643" d="M102.615 130.619C116.245 137.201 146.953 150.364 160.747 150.364C161.404 144.441 156.707 126.572 132.666 102.483L124.784 97.5466C117.394 104.622 102.615 121.142 102.615 130.619Z"/><path stroke="#004643" d="M118.38 64.4736C110.005 50.323 93.2546 10.8659 93.2546 -33.7578C79.9532 -13.6837 56.0106 41.6682 66.6518 102.483C71.9067 111.533 83.5002 129.04 87.8355 126.67C93.2546 123.709 105.078 98.5338 118.38 92.1167C113.617 87.8386 106.95 76.3207 118.38 64.4736Z"/><path stroke="#004643" d="M102.615 -56.4646C118.38 -73.9752 131.188 -119.856 237.904 -142.589C319.379 -159.945 398.999 -122.705 416.242 -89.6324L398.695 -65.8435C343.519 -57.2873 213.066 -19.2453 132.666 64.4736C120.022 48.0195 96.309 0.795959 102.615 -56.4646Z"/><path stroke="#004643" d="M87.8355 142.466V156.548C84.4308 152.027 76.3751 137.9 71.3897 117.552L83.2132 130.619L87.8355 142.466Z"/><path stroke="#004643" d="M429.543 -73.3428V-82.228C434.47 -81.2091 445.111 -74.63 448.264 -56.4646L437.121 -65.8435L429.543 -73.3428Z"/></g><g opacity=".15"><path fill="#004643" d="M815.933 291.644C913.21 191.139 1165.9 -5.77426 1398.46 10.6099L1426.85 34.5035C1425.71 81.9114 1346.66 361.049 1313.3 361.049C1279.93 361.049 1249.68 358.285 1237.21 425.903C1170.22 442.97 1014.2 475.966 926.079 471.415C927.972 456.244 920.174 425.903 873.845 425.903C859.461 408.457 827.742 366.283 815.933 337.156V291.644Z"/><path fill="#004643" d="M1456.37 47.0192C1450.69 94.4271 1419.13 227.928 1338.28 382.667C1417.76 351.188 1579.69 266.84 1591.5 181.278C1585.07 140.318 1564.93 53.6183 1535.86 34.5035L1487.03 10.6099L1456.37 47.0192Z"/><path fill="#004643" d="M1267.87 471.415C1293.62 475.207 1346.69 468.229 1353.04 409.974C1432.53 372.048 1591.5 277.99 1591.5 205.172C1622.92 331.846 1602.17 616.369 1267.87 741.071C1219.42 729.693 1121.16 699.655 1115.71 670.528C1166.43 612.121 1267.87 490.529 1267.87 471.415Z"/><path fill="#004643" d="M1087.32 634.118C1125.18 617.431 1208.15 557.887 1237.21 453.21C1158.86 470.656 986.944 503.728 926.079 496.446C955.225 542.337 1028.28 634.118 1087.32 634.118Z"/><path fill="#004643" d="M1087.32 703.524C1084.3 696.318 1063.02 696.014 1002.16 752.449C1068.4 758.902 1204.51 767.936 1219.05 752.449C1233.58 736.961 1137.29 713.379 1087.32 703.524Z"/><path fill="#004643" d="M849.999 496.446C854.622 504.031 871.315 518.747 901.098 516.926C933.271 554.852 1009.43 638.67 1056.67 670.528L969.229 741.071C898.069 718.315 743.486 641.628 694.431 516.926V453.21C738.338 467.622 830.922 496.446 849.999 496.446Z"/><path fill="#004643" d="M716.006 425.903C747.422 441.073 818.204 471.415 849.999 471.415C851.513 457.761 840.687 416.573 785.273 361.049L767.105 349.671C750.072 365.979 716.006 404.057 716.006 425.903Z"/><path fill="#004643" d="M752.343 273.439C733.039 240.823 694.431 149.875 694.431 47.0192C663.772 93.2893 608.585 220.873 633.112 361.049C645.225 381.909 671.947 422.262 681.94 416.801C694.431 409.974 721.684 351.947 752.343 337.156C741.366 327.295 725.999 300.746 752.343 273.439Z"/><path fill="#004643" d="M716.006 -5.31915C752.343 -45.6804 781.867 -151.435 1027.84 -203.833C1215.64 -243.838 1399.16 -158.002 1438.9 -81.7697L1398.46 -26.9371C1271.28 -7.21547 970.592 80.4702 785.273 273.439C756.128 235.513 701.471 126.664 716.006 -5.31915Z"/><path fill="#004643" d="M681.94 453.21V485.667C674.092 475.248 655.524 442.683 644.033 395.782L671.286 425.903L681.94 453.21Z"/><path fill="#004643" d="M1469.56 -44.2226V-64.7029C1480.92 -62.3544 1505.45 -47.1898 1512.71 -5.31915L1487.03 -26.9371L1469.56 -44.2226Z"/><path stroke="#004643" d="M815.933 291.644C913.21 191.139 1165.9 -5.77426 1398.46 10.6099L1426.85 34.5035C1425.71 81.9114 1346.66 361.049 1313.3 361.049C1279.93 361.049 1249.68 358.285 1237.21 425.903C1170.22 442.97 1014.2 475.966 926.079 471.415C927.972 456.244 920.174 425.903 873.845 425.903C859.461 408.457 827.742 366.283 815.933 337.156V291.644Z"/><path stroke="#004643" d="M1456.37 47.0192C1450.69 94.4271 1419.13 227.928 1338.28 382.667C1417.76 351.188 1579.69 266.84 1591.5 181.278C1585.07 140.318 1564.93 53.6183 1535.86 34.5035L1487.03 10.6099L1456.37 47.0192Z"/><path stroke="#004643" d="M1267.87 471.415C1293.62 475.207 1346.69 468.229 1353.04 409.974C1432.53 372.048 1591.5 277.99 1591.5 205.172C1622.92 331.846 1602.17 616.369 1267.87 741.071C1219.42 729.693 1121.16 699.655 1115.71 670.528C1166.43 612.121 1267.87 490.529 1267.87 471.415Z"/><path stroke="#004643" d="M1087.32 634.118C1125.18 617.431 1208.15 557.887 1237.21 453.21C1158.86 470.656 986.944 503.728 926.079 496.446C955.225 542.337 1028.28 634.118 1087.32 634.118Z"/><path stroke="#004643" d="M1087.32 703.524C1084.3 696.318 1063.02 696.014 1002.16 752.449C1068.4 758.902 1204.51 767.936 1219.05 752.449C1233.58 736.961 1137.29 713.379 1087.32 703.524Z"/><path stroke="#004643" d="M849.999 496.446C854.622 504.031 871.315 518.747 901.098 516.926C933.271 554.852 1009.43 638.67 1056.67 670.528L969.229 741.071C898.069 718.315 743.486 641.628 694.431 516.926V453.21C738.338 467.622 830.922 496.446 849.999 496.446Z"/><path stroke="#004643" d="M716.006 425.903C747.422 441.073 818.204 471.415 849.999 471.415C851.513 457.761 840.687 416.573 785.273 361.049L767.105 349.671C750.072 365.979 716.006 404.057 716.006 425.903Z"/><path stroke="#004643" d="M752.343 273.439C733.039 240.823 694.431 149.875 694.431 47.0192C663.772 93.2893 608.585 220.873 633.112 361.049C645.225 381.909 671.947 422.262 681.94 416.801C694.431 409.974 721.684 351.947 752.343 337.156C741.366 327.295 725.999 300.746 752.343 273.439Z"/><path stroke="#004643" d="M716.006 -5.31915C752.343 -45.6804 781.867 -151.435 1027.84 -203.833C1215.64 -243.838 1399.16 -158.002 1438.9 -81.7697L1398.46 -26.9371C1271.28 -7.21547 970.592 80.4702 785.273 273.439C756.128 235.513 701.471 126.664 716.006 -5.31915Z"/><path stroke="#004643" d="M681.94 453.21V485.667C674.092 475.248 655.524 442.683 644.033 395.782L671.286 425.903L681.94 453.21Z"/><path stroke="#004643" d="M1469.56 -44.2226V-64.7029C1480.92 -62.3544 1505.45 -47.1898 1512.71 -5.31915L1487.03 -26.9371L1469.56 -44.2226Z"/></g></g><defs><clipPath id="clip0_723_266"><rect width="1440" height="1024" fill="#fff"/></clipPath></defs></svg>