<svg width="1440" height="1024" viewBox="0 0 1440 1024" fill="none" xmlns="http://www.w3.org/2000/svg">
<g clip-path="url(#clip0_285_289)">
<rect width="1440" height="1024" fill="white"/>
<g opacity="0.15">
<path d="M830.795 1054.08C882.178 1003.78 1015.65 905.22 1138.49 913.42L1153.48 925.379C1152.88 949.107 1111.13 1088.82 1093.5 1088.82C1075.88 1088.82 1059.9 1087.44 1053.32 1121.28C1017.93 1129.82 935.519 1146.34 888.975 1144.06C889.975 1136.47 885.856 1121.28 861.385 1121.28C853.787 1112.55 837.033 1091.44 830.795 1076.86V1054.08Z" fill="#004643"/>
<path d="M1169.08 931.643C1166.08 955.372 1149.41 1022.19 1106.7 1099.64C1148.69 1083.88 1234.22 1041.67 1240.45 998.842C1237.06 978.341 1226.42 934.946 1211.06 925.379L1185.27 913.42L1169.08 931.643Z" fill="#004643"/>
<path d="M1069.51 1144.06C1083.11 1145.96 1111.14 1142.46 1114.5 1113.31C1156.48 1094.32 1240.45 1047.25 1240.45 1010.8C1257.05 1074.2 1246.09 1216.61 1069.51 1279.03C1043.92 1273.33 992.02 1258.3 989.141 1243.72C1015.93 1214.48 1069.51 1153.63 1069.51 1144.06Z" fill="#004643"/>
<path d="M974.146 1225.49C994.139 1217.14 1037.96 1187.34 1053.32 1134.95C1011.93 1143.68 921.124 1160.23 888.975 1156.59C904.37 1179.56 942.957 1225.49 974.146 1225.49Z" fill="#004643"/>
<path d="M974.146 1260.23C972.546 1256.63 961.31 1256.47 929.161 1284.72C964.149 1287.95 1036.04 1292.47 1043.72 1284.72C1051.4 1276.97 1000.54 1265.16 974.146 1260.23Z" fill="#004643"/>
<path d="M848.789 1156.59C851.231 1160.38 860.049 1167.75 875.78 1166.84C892.774 1185.82 933 1227.77 957.951 1243.72L911.767 1279.03C874.18 1267.64 792.528 1229.25 766.617 1166.84V1134.95C789.809 1142.16 838.712 1156.59 848.789 1156.59Z" fill="#004643"/>
<path d="M778.013 1121.28C794.608 1128.87 831.995 1144.06 848.789 1144.06C849.589 1137.23 843.871 1116.61 814.601 1088.82L805.004 1083.12C796.007 1091.29 778.013 1110.35 778.013 1121.28Z" fill="#004643"/>
<path d="M797.207 1044.97C787.01 1028.64 766.617 983.124 766.617 931.643C750.423 954.802 721.273 1018.66 734.229 1088.82C740.626 1099.26 754.741 1119.46 760.02 1116.72C766.617 1113.31 781.012 1084.26 797.207 1076.86C791.409 1071.92 783.292 1058.64 797.207 1044.97Z" fill="#004643"/>
<path d="M778.013 905.447C797.207 885.246 812.801 832.315 942.727 806.089C1041.92 786.066 1138.86 829.028 1159.85 867.183L1138.49 894.627C1071.31 904.498 912.487 948.386 814.601 1044.97C799.206 1025.99 770.336 971.507 778.013 905.447Z" fill="#004643"/>
<path d="M760.02 1134.95V1151.19C755.874 1145.98 746.067 1129.68 739.997 1106.2L754.392 1121.28L760.02 1134.95Z" fill="#004643"/>
<path d="M1176.05 885.976V875.725C1182.04 876.901 1195 884.491 1198.84 905.447L1185.27 894.627L1176.05 885.976Z" fill="#004643"/>
<path d="M830.795 1054.08C882.178 1003.78 1015.65 905.22 1138.49 913.42L1153.48 925.379C1152.88 949.107 1111.13 1088.82 1093.5 1088.82C1075.88 1088.82 1059.9 1087.44 1053.32 1121.28C1017.93 1129.82 935.519 1146.34 888.975 1144.06C889.975 1136.47 885.856 1121.28 861.385 1121.28C853.787 1112.55 837.033 1091.44 830.795 1076.86V1054.08Z" stroke="#004643"/>
<path d="M1169.08 931.643C1166.08 955.372 1149.41 1022.19 1106.7 1099.64C1148.69 1083.88 1234.22 1041.67 1240.45 998.842C1237.06 978.341 1226.42 934.946 1211.06 925.379L1185.27 913.42L1169.08 931.643Z" stroke="#004643"/>
<path d="M1069.51 1144.06C1083.11 1145.96 1111.14 1142.46 1114.5 1113.31C1156.48 1094.32 1240.45 1047.25 1240.45 1010.8C1257.05 1074.2 1246.09 1216.61 1069.51 1279.03C1043.92 1273.33 992.02 1258.3 989.141 1243.72C1015.93 1214.48 1069.51 1153.63 1069.51 1144.06Z" stroke="#004643"/>
<path d="M974.146 1225.49C994.139 1217.14 1037.96 1187.34 1053.32 1134.95C1011.93 1143.68 921.124 1160.23 888.975 1156.59C904.37 1179.56 942.957 1225.49 974.146 1225.49Z" stroke="#004643"/>
<path d="M974.146 1260.23C972.546 1256.63 961.31 1256.47 929.161 1284.72C964.149 1287.95 1036.04 1292.47 1043.72 1284.72C1051.4 1276.97 1000.54 1265.16 974.146 1260.23Z" stroke="#004643"/>
<path d="M848.789 1156.59C851.231 1160.38 860.049 1167.75 875.78 1166.84C892.774 1185.82 933 1227.77 957.951 1243.72L911.767 1279.03C874.18 1267.64 792.528 1229.25 766.617 1166.84V1134.95C789.809 1142.16 838.712 1156.59 848.789 1156.59Z" stroke="#004643"/>
<path d="M778.013 1121.28C794.608 1128.87 831.995 1144.06 848.789 1144.06C849.589 1137.23 843.871 1116.61 814.601 1088.82L805.004 1083.12C796.007 1091.29 778.013 1110.35 778.013 1121.28Z" stroke="#004643"/>
<path d="M797.207 1044.97C787.01 1028.64 766.617 983.124 766.617 931.643C750.423 954.802 721.273 1018.66 734.229 1088.82C740.626 1099.26 754.741 1119.46 760.02 1116.72C766.617 1113.31 781.012 1084.26 797.207 1076.86C791.409 1071.92 783.292 1058.64 797.207 1044.97Z" stroke="#004643"/>
<path d="M778.013 905.447C797.207 885.246 812.801 832.315 942.727 806.089C1041.92 786.066 1138.86 829.028 1159.85 867.183L1138.49 894.627C1071.31 904.498 912.487 948.386 814.601 1044.97C799.206 1025.99 770.336 971.507 778.013 905.447Z" stroke="#004643"/>
<path d="M760.02 1134.95V1151.19C755.874 1145.98 746.067 1129.68 739.997 1106.2L754.392 1121.28L760.02 1134.95Z" stroke="#004643"/>
<path d="M1176.05 885.976V875.725C1182.04 876.901 1195 884.491 1198.84 905.447L1185.27 894.627L1176.05 885.976Z" stroke="#004643"/>
</g>
<g opacity="0.15">
<path d="M-74.636 719.364C-0.306293 642.568 192.777 492.106 370.475 504.625L392.166 522.882C391.299 559.107 330.894 772.396 305.4 772.396C279.906 772.396 256.79 770.285 247.267 821.952C196.075 834.992 76.8578 860.205 9.52721 856.727C10.9733 845.135 5.01537 821.952 -30.3852 821.952C-41.3756 808.621 -65.6123 776.396 -74.636 754.139V719.364Z" fill="#004643"/>
<path d="M414.725 532.445C410.387 568.67 386.266 670.678 324.489 788.915C385.225 764.862 508.954 700.411 517.977 635.033C513.06 603.735 497.674 537.488 475.462 522.882L438.152 504.625L414.725 532.445Z" fill="#004643"/>
<path d="M270.693 856.727C290.363 859.625 330.915 854.293 335.768 809.78C396.504 780.8 517.977 708.931 517.977 653.29C541.983 750.082 526.133 967.487 270.693 1062.77C233.673 1054.08 158.592 1031.13 154.427 1008.87C193.182 964.241 270.693 871.333 270.693 856.727Z" fill="#004643"/>
<path d="M132.735 981.05C161.657 968.298 225.054 922.801 247.267 842.817C187.398 856.147 56.0339 881.418 9.52721 875.854C31.7972 910.919 87.6168 981.05 132.735 981.05Z" fill="#004643"/>
<path d="M132.735 1034.08C130.421 1028.58 114.167 1028.34 67.6605 1071.47C118.274 1076.4 222.278 1083.3 233.384 1071.47C244.49 1059.63 170.912 1041.61 132.735 1034.08Z" fill="#004643"/>
<path d="M-48.6062 875.854C-45.0732 881.649 -32.3181 892.894 -9.56138 891.503C15.0224 920.482 73.2136 984.527 109.308 1008.87L42.4983 1062.77C-11.8751 1045.38 -129.993 986.787 -167.476 891.503V842.817C-133.926 853.829 -63.1829 875.854 -48.6062 875.854Z" fill="#004643"/>
<path d="M-150.99 821.952C-126.985 833.543 -72.9007 856.727 -48.6062 856.727C-47.4493 846.294 -55.721 814.823 -98.0629 772.396L-111.946 763.703C-124.96 776.164 -150.99 805.259 -150.99 821.952Z" fill="#004643"/>
<path d="M-123.225 705.454C-137.975 680.531 -167.476 611.038 -167.476 532.445C-190.903 567.801 -233.071 665.288 -214.33 772.396C-205.075 788.335 -184.656 819.169 -177.02 814.996C-167.476 809.78 -146.652 765.441 -123.225 754.139C-131.613 746.605 -143.355 726.319 -123.225 705.454Z" fill="#004643"/>
<path d="M-150.99 492.454C-123.225 461.613 -100.666 380.806 87.2847 340.769C230.781 310.201 371.01 375.789 401.378 434.038L370.475 475.935C273.296 491.005 43.5396 558.005 -98.0629 705.454C-120.333 676.474 -162.096 593.303 -150.99 492.454Z" fill="#004643"/>
<path d="M-177.02 842.817V867.618C-183.017 859.656 -197.205 834.773 -205.985 798.936L-185.161 821.952L-177.02 842.817Z" fill="#004643"/>
<path d="M424.805 462.727V447.078C433.482 448.873 452.223 460.46 457.776 492.454L438.152 475.935L424.805 462.727Z" fill="#004643"/>
<path d="M-74.636 719.364C-0.306293 642.568 192.777 492.106 370.475 504.625L392.166 522.882C391.299 559.107 330.894 772.396 305.4 772.396C279.906 772.396 256.79 770.285 247.267 821.952C196.075 834.992 76.8578 860.205 9.52721 856.727C10.9733 845.135 5.01537 821.952 -30.3852 821.952C-41.3756 808.621 -65.6123 776.396 -74.636 754.139V719.364Z" stroke="#004643"/>
<path d="M414.725 532.445C410.387 568.67 386.266 670.678 324.489 788.915C385.225 764.862 508.954 700.411 517.977 635.033C513.06 603.735 497.674 537.488 475.462 522.882L438.152 504.625L414.725 532.445Z" stroke="#004643"/>
<path d="M270.693 856.727C290.363 859.625 330.915 854.293 335.768 809.78C396.504 780.8 517.977 708.931 517.977 653.29C541.983 750.082 526.133 967.487 270.693 1062.77C233.673 1054.08 158.592 1031.13 154.427 1008.87C193.182 964.241 270.693 871.333 270.693 856.727Z" stroke="#004643"/>
<path d="M132.735 981.05C161.657 968.298 225.054 922.801 247.267 842.817C187.398 856.147 56.0339 881.418 9.52721 875.854C31.7972 910.919 87.6168 981.05 132.735 981.05Z" stroke="#004643"/>
<path d="M132.735 1034.08C130.421 1028.58 114.167 1028.34 67.6605 1071.47C118.274 1076.4 222.278 1083.3 233.384 1071.47C244.49 1059.63 170.912 1041.61 132.735 1034.08Z" stroke="#004643"/>
<path d="M-48.6062 875.854C-45.0732 881.649 -32.3181 892.894 -9.56138 891.503C15.0224 920.482 73.2136 984.527 109.308 1008.87L42.4983 1062.77C-11.8751 1045.38 -129.993 986.787 -167.476 891.503V842.817C-133.926 853.829 -63.1829 875.854 -48.6062 875.854Z" stroke="#004643"/>
<path d="M-150.99 821.952C-126.985 833.543 -72.9007 856.727 -48.6062 856.727C-47.4493 846.294 -55.721 814.823 -98.0629 772.396L-111.946 763.703C-124.96 776.164 -150.99 805.259 -150.99 821.952Z" stroke="#004643"/>
<path d="M-123.225 705.454C-137.975 680.531 -167.476 611.038 -167.476 532.445C-190.903 567.801 -233.071 665.288 -214.33 772.396C-205.075 788.335 -184.656 819.169 -177.02 814.996C-167.476 809.78 -146.652 765.441 -123.225 754.139C-131.613 746.605 -143.355 726.319 -123.225 705.454Z" stroke="#004643"/>
<path d="M-150.99 492.454C-123.225 461.613 -100.666 380.806 87.2847 340.769C230.781 310.201 371.01 375.789 401.378 434.038L370.475 475.935C273.296 491.005 43.5396 558.005 -98.0629 705.454C-120.333 676.474 -162.096 593.303 -150.99 492.454Z" stroke="#004643"/>
<path d="M-177.02 842.817V867.618C-183.017 859.656 -197.205 834.773 -205.985 798.936L-185.161 821.952L-177.02 842.817Z" stroke="#004643"/>
<path d="M424.805 462.727V447.078C433.482 448.873 452.223 460.46 457.776 492.454L438.152 475.935L424.805 462.727Z" stroke="#004643"/>
</g>
<g opacity="0.15">
<path d="M145.968 72.3717C188.171 28.7681 297.801 -56.6621 398.695 -49.5539L411.011 -39.1877C410.518 -18.62 376.222 102.483 361.747 102.483C347.271 102.483 334.147 101.284 328.739 130.619C299.673 138.024 231.984 152.339 193.754 150.364C194.575 143.783 191.193 130.619 171.093 130.619C164.852 123.051 151.091 104.754 145.968 92.1167V72.3717Z" fill="#004643"/>
<path d="M423.82 -33.7578C421.357 -13.1901 407.661 44.7286 372.585 111.862C407.07 98.2047 477.321 61.6106 482.445 24.49C479.653 6.71945 470.917 -30.8948 458.305 -39.1877L437.121 -49.5539L423.82 -33.7578Z" fill="#004643"/>
<path d="M342.041 150.364C353.209 152.01 376.234 148.982 378.989 123.709C413.474 107.254 482.445 66.4482 482.445 34.8561C496.075 89.8131 487.076 213.252 342.041 267.354C321.021 262.417 278.391 249.386 276.026 236.749C298.031 211.41 342.041 158.657 342.041 150.364Z" fill="#004643"/>
<path d="M263.71 220.953C280.132 213.713 316.128 187.88 328.739 142.466C294.747 150.035 220.16 164.383 193.754 161.224C206.399 181.134 238.092 220.953 263.71 220.953Z" fill="#004643"/>
<path d="M263.71 251.064C262.396 247.938 253.167 247.806 226.762 272.29C255.499 275.09 314.551 279.009 320.857 272.29C327.163 265.571 285.386 255.34 263.71 251.064Z" fill="#004643"/>
<path d="M160.747 161.224C162.753 164.515 169.995 170.899 182.916 170.109C196.874 186.564 229.915 222.927 250.409 236.749L212.475 267.354C181.602 257.481 114.537 224.211 93.2546 170.109V142.466C112.304 148.719 152.471 161.224 160.747 161.224Z" fill="#004643"/>
<path d="M102.615 130.619C116.245 137.201 146.953 150.364 160.747 150.364C161.404 144.441 156.707 126.572 132.666 102.483L124.784 97.5466C117.394 104.622 102.615 121.142 102.615 130.619Z" fill="#004643"/>
<path d="M118.38 64.4737C110.005 50.323 93.2546 10.8659 93.2546 -33.7578C79.9532 -13.6837 56.0106 41.6681 66.6518 102.483C71.9067 111.533 83.5002 129.04 87.8355 126.67C93.2546 123.709 105.078 98.5338 118.38 92.1167C113.617 87.8386 106.95 76.3207 118.38 64.4737Z" fill="#004643"/>
<path d="M102.615 -56.4646C118.38 -73.9752 131.188 -119.856 237.904 -142.589C319.379 -159.945 398.999 -122.705 416.242 -89.6324L398.695 -65.8435C343.519 -57.2873 213.066 -19.2453 132.666 64.4737C120.022 48.0195 96.309 0.795958 102.615 -56.4646Z" fill="#004643"/>
<path d="M87.8355 142.466V156.548C84.4308 152.028 76.3751 137.899 71.3897 117.552L83.2132 130.619L87.8355 142.466Z" fill="#004643"/>
<path d="M429.543 -73.3427V-82.228C434.47 -81.2091 445.111 -74.63 448.264 -56.4646L437.121 -65.8435L429.543 -73.3427Z" fill="#004643"/>
<path d="M145.968 72.3717C188.171 28.7681 297.801 -56.6621 398.695 -49.5539L411.011 -39.1877C410.518 -18.62 376.222 102.483 361.747 102.483C347.271 102.483 334.147 101.284 328.739 130.619C299.673 138.024 231.984 152.339 193.754 150.364C194.575 143.783 191.193 130.619 171.093 130.619C164.852 123.051 151.091 104.754 145.968 92.1167V72.3717Z" stroke="#004643"/>
<path d="M423.82 -33.7578C421.357 -13.1901 407.661 44.7286 372.585 111.862C407.07 98.2047 477.321 61.6106 482.445 24.49C479.653 6.71945 470.917 -30.8948 458.305 -39.1877L437.121 -49.5539L423.82 -33.7578Z" stroke="#004643"/>
<path d="M342.041 150.364C353.209 152.01 376.234 148.982 378.989 123.709C413.474 107.254 482.445 66.4482 482.445 34.8561C496.075 89.8131 487.076 213.252 342.041 267.354C321.021 262.417 278.391 249.386 276.026 236.749C298.031 211.41 342.041 158.657 342.041 150.364Z" stroke="#004643"/>
<path d="M263.71 220.953C280.132 213.713 316.128 187.88 328.739 142.466C294.747 150.035 220.16 164.383 193.754 161.224C206.399 181.134 238.092 220.953 263.71 220.953Z" stroke="#004643"/>
<path d="M263.71 251.064C262.396 247.938 253.167 247.806 226.762 272.29C255.499 275.09 314.551 279.009 320.857 272.29C327.163 265.571 285.386 255.34 263.71 251.064Z" stroke="#004643"/>
<path d="M160.747 161.224C162.753 164.515 169.995 170.899 182.916 170.109C196.874 186.564 229.915 222.927 250.409 236.749L212.475 267.354C181.602 257.481 114.537 224.211 93.2546 170.109V142.466C112.304 148.719 152.471 161.224 160.747 161.224Z" stroke="#004643"/>
<path d="M102.615 130.619C116.245 137.201 146.953 150.364 160.747 150.364C161.404 144.441 156.707 126.572 132.666 102.483L124.784 97.5466C117.394 104.622 102.615 121.142 102.615 130.619Z" stroke="#004643"/>
<path d="M118.38 64.4737C110.005 50.323 93.2546 10.8659 93.2546 -33.7578C79.9532 -13.6837 56.0106 41.6681 66.6518 102.483C71.9067 111.533 83.5002 129.04 87.8355 126.67C93.2546 123.709 105.078 98.5338 118.38 92.1167C113.617 87.8386 106.95 76.3207 118.38 64.4737Z" stroke="#004643"/>
<path d="M102.615 -56.4646C118.38 -73.9752 131.188 -119.856 237.904 -142.589C319.379 -159.945 398.999 -122.705 416.242 -89.6324L398.695 -65.8435C343.519 -57.2873 213.066 -19.2453 132.666 64.4737C120.022 48.0195 96.309 0.795958 102.615 -56.4646Z" stroke="#004643"/>
<path d="M87.8355 142.466V156.548C84.4308 152.028 76.3751 137.899 71.3897 117.552L83.2132 130.619L87.8355 142.466Z" stroke="#004643"/>
<path d="M429.543 -73.3427V-82.228C434.47 -81.2091 445.111 -74.63 448.264 -56.4646L437.121 -65.8435L429.543 -73.3427Z" stroke="#004643"/>
</g>
<g opacity="0.15">
<path d="M815.933 291.644C913.21 191.139 1165.9 -5.77427 1398.46 10.6099L1426.85 34.5035C1425.71 81.9114 1346.66 361.049 1313.3 361.049C1279.93 361.049 1249.68 358.285 1237.21 425.903C1170.22 442.97 1014.2 475.966 926.079 471.415C927.972 456.244 920.174 425.903 873.845 425.903C859.461 408.457 827.742 366.283 815.933 337.155V291.644Z" fill="#004643"/>
<path d="M1456.37 47.0192C1450.69 94.4271 1419.13 227.928 1338.28 382.667C1417.76 351.188 1579.69 266.84 1591.5 181.278C1585.07 140.318 1564.93 53.6184 1535.86 34.5035L1487.03 10.6099L1456.37 47.0192Z" fill="#004643"/>
<path d="M1267.87 471.415C1293.62 475.207 1346.69 468.229 1353.04 409.974C1432.53 372.048 1591.5 277.99 1591.5 205.172C1622.92 331.846 1602.17 616.369 1267.87 741.071C1219.42 729.693 1121.16 699.655 1115.71 670.528C1166.43 612.121 1267.87 490.529 1267.87 471.415Z" fill="#004643"/>
<path d="M1087.32 634.118C1125.18 617.431 1208.15 557.887 1237.21 453.21C1158.86 470.656 986.944 503.728 926.079 496.446C955.225 542.337 1028.28 634.118 1087.32 634.118Z" fill="#004643"/>
<path d="M1087.32 703.524C1084.3 696.318 1063.02 696.014 1002.16 752.449C1068.4 758.902 1204.51 767.936 1219.05 752.449C1233.58 736.961 1137.29 713.379 1087.32 703.524Z" fill="#004643"/>
<path d="M849.999 496.446C854.622 504.031 871.315 518.747 901.098 516.926C933.271 554.852 1009.43 638.67 1056.67 670.528L969.229 741.071C898.069 718.315 743.486 641.628 694.431 516.926V453.21C738.338 467.622 830.922 496.446 849.999 496.446Z" fill="#004643"/>
<path d="M716.006 425.903C747.422 441.074 818.204 471.415 849.999 471.415C851.513 457.761 840.687 416.573 785.273 361.049L767.105 349.671C750.072 365.979 716.006 404.057 716.006 425.903Z" fill="#004643"/>
<path d="M752.343 273.439C733.039 240.823 694.431 149.875 694.431 47.0192C663.772 93.2893 608.585 220.873 633.112 361.049C645.225 381.909 671.947 422.262 681.94 416.801C694.431 409.974 721.684 351.947 752.343 337.155C741.366 327.295 725.999 300.746 752.343 273.439Z" fill="#004643"/>
<path d="M716.006 -5.31915C752.343 -45.6804 781.867 -151.435 1027.84 -203.833C1215.64 -243.838 1399.16 -158.002 1438.9 -81.7697L1398.46 -26.9372C1271.28 -7.21547 970.592 80.4701 785.273 273.439C756.128 235.513 701.471 126.664 716.006 -5.31915Z" fill="#004643"/>
<path d="M681.94 453.21V485.667C674.092 475.248 655.524 442.683 644.033 395.782L671.286 425.903L681.94 453.21Z" fill="#004643"/>
<path d="M1469.56 -44.2226V-64.7029C1480.92 -62.3544 1505.45 -47.1898 1512.71 -5.31915L1487.03 -26.9372L1469.56 -44.2226Z" fill="#004643"/>
<path d="M815.933 291.644C913.21 191.139 1165.9 -5.77427 1398.46 10.6099L1426.85 34.5035C1425.71 81.9114 1346.66 361.049 1313.3 361.049C1279.93 361.049 1249.68 358.285 1237.21 425.903C1170.22 442.97 1014.2 475.966 926.079 471.415C927.972 456.244 920.174 425.903 873.845 425.903C859.461 408.457 827.742 366.283 815.933 337.155V291.644Z" stroke="#004643"/>
<path d="M1456.37 47.0192C1450.69 94.4271 1419.13 227.928 1338.28 382.667C1417.76 351.188 1579.69 266.84 1591.5 181.278C1585.07 140.318 1564.93 53.6184 1535.86 34.5035L1487.03 10.6099L1456.37 47.0192Z" stroke="#004643"/>
<path d="M1267.87 471.415C1293.62 475.207 1346.69 468.229 1353.04 409.974C1432.53 372.048 1591.5 277.99 1591.5 205.172C1622.92 331.846 1602.17 616.369 1267.87 741.071C1219.42 729.693 1121.16 699.655 1115.71 670.528C1166.43 612.121 1267.87 490.529 1267.87 471.415Z" stroke="#004643"/>
<path d="M1087.32 634.118C1125.18 617.431 1208.15 557.887 1237.21 453.21C1158.86 470.656 986.944 503.728 926.079 496.446C955.225 542.337 1028.28 634.118 1087.32 634.118Z" stroke="#004643"/>
<path d="M1087.32 703.524C1084.3 696.318 1063.02 696.014 1002.16 752.449C1068.4 758.902 1204.51 767.936 1219.05 752.449C1233.58 736.961 1137.29 713.379 1087.32 703.524Z" stroke="#004643"/>
<path d="M849.999 496.446C854.622 504.031 871.315 518.747 901.098 516.926C933.271 554.852 1009.43 638.67 1056.67 670.528L969.229 741.071C898.069 718.315 743.486 641.628 694.431 516.926V453.21C738.338 467.622 830.922 496.446 849.999 496.446Z" stroke="#004643"/>
<path d="M716.006 425.903C747.422 441.074 818.204 471.415 849.999 471.415C851.513 457.761 840.687 416.573 785.273 361.049L767.105 349.671C750.072 365.979 716.006 404.057 716.006 425.903Z" stroke="#004643"/>
<path d="M752.343 273.439C733.039 240.823 694.431 149.875 694.431 47.0192C663.772 93.2893 608.585 220.873 633.112 361.049C645.225 381.909 671.947 422.262 681.94 416.801C694.431 409.974 721.684 351.947 752.343 337.155C741.366 327.295 725.999 300.746 752.343 273.439Z" stroke="#004643"/>
<path d="M716.006 -5.31915C752.343 -45.6804 781.867 -151.435 1027.84 -203.833C1215.64 -243.838 1399.16 -158.002 1438.9 -81.7697L1398.46 -26.9372C1271.28 -7.21547 970.592 80.4701 785.273 273.439C756.128 235.513 701.471 126.664 716.006 -5.31915Z" stroke="#004643"/>
<path d="M681.94 453.21V485.667C674.092 475.248 655.524 442.683 644.033 395.782L671.286 425.903L681.94 453.21Z" stroke="#004643"/>
<path d="M1469.56 -44.2226V-64.7029C1480.92 -62.3544 1505.45 -47.1898 1512.71 -5.31915L1487.03 -26.9372L1469.56 -44.2226Z" stroke="#004643"/>
</g>
<g filter="url(#filter0_d_285_289)">
<path d="M311.584 730.072L303.648 775H292.704L300.64 730.072H311.584ZM351.835 730.072L350.363 738.712H338.395L331.995 775H321.051L327.451 738.712H315.547L317.083 730.072H351.835ZM404.46 730.072L402.988 738.712H391.02L384.62 775H373.676L380.076 738.712H368.172L369.708 730.072H404.46ZM419.361 738.712L417.76 748.056H432.417L430.945 756.312H416.289L414.497 766.36H431.073L429.537 775H402.017L409.953 730.072H437.472L435.937 738.712H419.361ZM438.818 752.472C439.586 748.035 441.228 744.088 443.746 740.632C446.306 737.133 449.463 734.424 453.218 732.504C456.972 730.541 461.026 729.56 465.378 729.56C470.711 729.56 475.02 730.968 478.306 733.784C481.634 736.6 483.511 740.44 483.938 745.304H471.906C471.351 743.469 470.327 742.083 468.833 741.144C467.383 740.163 465.591 739.672 463.458 739.672C460.087 739.672 457.164 740.845 454.69 743.192C452.215 745.496 450.636 748.589 449.954 752.472C449.74 753.667 449.634 754.712 449.634 755.608C449.634 758.595 450.466 760.963 452.13 762.712C453.794 764.461 456.076 765.336 458.978 765.336C461.068 765.336 463.01 764.845 464.802 763.864C466.636 762.883 468.172 761.475 469.41 759.64H481.442C479.308 764.504 476.087 768.344 471.778 771.16C467.468 773.933 462.647 775.32 457.314 775.32C453.474 775.32 450.124 774.573 447.266 773.08C444.407 771.587 442.21 769.475 440.674 766.744C439.138 764.013 438.37 760.835 438.37 757.208C438.37 755.587 438.519 754.008 438.818 752.472ZM532.24 730.072L524.304 775H513.36L516.624 756.376H499.6L496.336 775H485.392L493.328 730.072H504.272L501.135 747.736H518.16L521.296 730.072H532.24ZM572.396 775H561.452L548.076 747.288L543.148 775H532.204L540.14 730.072H551.084L564.46 757.912L569.388 730.072H580.332L572.396 775ZM601.705 775.448C597.908 775.448 594.558 774.659 591.657 773.08C588.798 771.501 586.58 769.283 585.001 766.424C583.422 763.565 582.633 760.28 582.633 756.568C582.633 751.32 583.764 746.648 586.025 742.552C588.286 738.413 591.422 735.192 595.433 732.888C599.486 730.584 604.073 729.432 609.193 729.432C613.033 729.432 616.404 730.221 619.305 731.8C622.206 733.336 624.446 735.533 626.025 738.392C627.604 741.208 628.393 744.451 628.393 748.12C628.393 753.368 627.262 758.083 625.001 762.264C622.74 766.403 619.582 769.645 615.529 771.992C611.476 774.296 606.868 775.448 601.705 775.448ZM603.369 765.336C606.185 765.336 608.66 764.611 610.793 763.16C612.926 761.709 614.569 759.768 615.721 757.336C616.916 754.861 617.513 752.195 617.513 749.336C617.513 746.264 616.66 743.853 614.953 742.104C613.246 740.355 610.857 739.48 607.785 739.48C604.969 739.48 602.473 740.205 600.297 741.656C598.164 743.107 596.5 745.048 595.305 747.48C594.153 749.869 593.577 752.515 593.577 755.416C593.577 758.488 594.43 760.92 596.137 762.712C597.844 764.461 600.254 765.336 603.369 765.336ZM643.058 766.68H657.394L655.922 775H630.642L638.578 730.072H649.522L643.058 766.68ZM682.518 775.448C678.72 775.448 675.371 774.659 672.47 773.08C669.611 771.501 667.392 769.283 665.814 766.424C664.235 763.565 663.446 760.28 663.446 756.568C663.446 751.32 664.576 746.648 666.838 742.552C669.099 738.413 672.235 735.192 676.246 732.888C680.299 730.584 684.886 729.432 690.006 729.432C693.846 729.432 697.216 730.221 700.118 731.8C703.019 733.336 705.259 735.533 706.838 738.392C708.416 741.208 709.206 744.451 709.206 748.12C709.206 753.368 708.075 758.083 705.814 762.264C703.552 766.403 700.395 769.645 696.342 771.992C692.288 774.296 687.68 775.448 682.518 775.448ZM684.182 765.336C686.998 765.336 689.472 764.611 691.606 763.16C693.739 761.709 695.382 759.768 696.534 757.336C697.728 754.861 698.326 752.195 698.326 749.336C698.326 746.264 697.472 743.853 695.766 742.104C694.059 740.355 691.67 739.48 688.598 739.48C685.782 739.48 683.286 740.205 681.11 741.656C678.976 743.107 677.312 745.048 676.118 747.48C674.966 749.869 674.39 752.515 674.39 755.416C674.39 758.488 675.243 760.92 676.95 762.712C678.656 764.461 681.067 765.336 684.182 765.336ZM713.63 752.472C714.398 748.035 716.041 744.088 718.558 740.632C721.118 737.133 724.297 734.424 728.094 732.504C731.891 730.541 736.009 729.56 740.446 729.56C745.822 729.56 750.131 730.861 753.374 733.464C756.659 736.067 758.451 739.672 758.75 744.28H746.718C746.163 742.787 745.182 741.656 743.774 740.888C742.409 740.077 740.723 739.672 738.718 739.672C735.177 739.672 732.126 740.845 729.566 743.192C727.049 745.496 725.449 748.589 724.766 752.472C724.553 753.752 724.446 754.861 724.446 755.8C724.446 758.957 725.363 761.389 727.198 763.096C729.033 764.803 731.635 765.656 735.006 765.656C737.737 765.656 740.147 764.973 742.238 763.608C744.329 762.2 746.014 760.216 747.294 757.656H733.47L734.814 749.656H758.622L756.83 759.832C755.55 762.563 753.715 765.101 751.326 767.448C748.979 769.795 746.185 771.693 742.942 773.144C739.699 774.595 736.201 775.32 732.446 775.32C728.563 775.32 725.15 774.573 722.206 773.08C719.305 771.544 717.065 769.411 715.486 766.68C713.95 763.949 713.182 760.771 713.182 757.144C713.182 755.907 713.331 754.349 713.63 752.472ZM806.668 730.072L785.868 760.152L783.18 775H772.236L774.924 760.152L764.62 730.072H777.036L782.412 748.824L794.38 730.072H806.668ZM844.258 730.072C848.909 730.072 852.45 731.139 854.882 733.272C857.314 735.363 858.53 738.093 858.53 741.464C858.53 742.445 858.445 743.363 858.274 744.216C857.762 747.203 856.461 749.869 854.37 752.216C852.279 754.563 849.485 756.227 845.986 757.208L853.218 775H840.866L834.53 758.04H831.906L828.898 775H817.954L825.89 730.072H844.258ZM847.074 744.664C847.159 743.981 847.202 743.533 847.202 743.32C847.202 741.955 846.754 740.909 845.858 740.184C845.005 739.416 843.725 739.032 842.018 739.032H835.234L833.25 750.296H840.034C842.039 750.296 843.618 749.805 844.77 748.824C845.965 747.843 846.733 746.456 847.074 744.664ZM903.224 757.208C901.347 760.152 899.576 762.563 897.912 764.44L906.872 775H894.136L890.68 770.968C886.029 774.125 880.803 775.704 875 775.704C870.307 775.704 866.595 774.68 863.864 772.632C861.176 770.541 859.832 767.725 859.832 764.184C859.832 760.813 860.92 757.805 863.096 755.16C865.315 752.515 868.259 750.403 871.928 748.824C870.605 746.776 869.944 744.771 869.944 742.808C869.944 740.205 870.627 737.901 871.992 735.896C873.357 733.848 875.256 732.269 877.688 731.16C880.12 730.051 882.872 729.496 885.944 729.496C889.784 729.496 892.728 730.371 894.776 732.12C896.867 733.869 897.912 736.088 897.912 738.776C897.912 739.331 897.848 739.971 897.72 740.696H887.48C887.523 740.525 887.544 740.269 887.544 739.928C887.544 739.117 887.267 738.499 886.712 738.072C886.157 737.603 885.453 737.368 884.6 737.368C883.448 737.368 882.467 737.752 881.656 738.52C880.845 739.245 880.44 740.184 880.44 741.336C880.44 742.829 881.293 744.643 883 746.776L892.024 757.464L893.176 755.672L896.248 751.64H907.256L903.224 757.208ZM877.176 766.872C880.035 766.872 882.68 766.083 885.112 764.504L876.856 754.84C875.021 755.693 873.592 756.76 872.568 758.04C871.544 759.277 871.032 760.643 871.032 762.136C871.032 763.544 871.565 764.696 872.632 765.592C873.741 766.445 875.256 766.872 877.176 766.872ZM970.208 730.072L962.272 775H951.328L956.128 748.056L941.28 775H932.448L927.072 747.928L922.336 775H911.392L919.328 730.072H932.256L939.424 761.176L957.344 730.072H970.208ZM1002.81 775.448C997.946 775.448 993.978 774.403 990.906 772.312C987.877 770.179 986.362 767.171 986.362 763.288C986.362 762.904 986.405 762.328 986.49 761.56H997.882C997.754 763.181 998.138 764.461 999.034 765.4C999.93 766.339 1001.3 766.808 1003.13 766.808C1004.79 766.808 1006.1 766.445 1007.03 765.72C1008.02 764.995 1008.51 763.971 1008.51 762.648C1008.51 761.283 1007.89 760.173 1006.65 759.32C1005.46 758.467 1003.58 757.507 1001.02 756.44C998.543 755.416 996.517 754.456 994.938 753.56C993.402 752.621 992.058 751.363 990.906 749.784C989.754 748.205 989.178 746.221 989.178 743.832C989.135 740.888 989.861 738.328 991.354 736.152C992.847 733.976 994.917 732.312 997.562 731.16C1000.21 730.008 1003.24 729.432 1006.65 729.432C1009.72 729.432 1012.45 729.923 1014.84 730.904C1017.23 731.843 1019.09 733.229 1020.41 735.064C1021.73 736.856 1022.39 738.989 1022.39 741.464C1022.39 742.104 1022.37 742.573 1022.33 742.872H1010.68C1010.72 742.701 1010.75 742.445 1010.75 742.104C1010.75 740.909 1010.32 739.949 1009.47 739.224C1008.66 738.456 1007.52 738.072 1006.07 738.072C1004.54 738.072 1003.28 738.456 1002.3 739.224C1001.36 739.949 1000.89 740.952 1000.89 742.232C1000.89 743.512 1001.49 744.6 1002.68 745.496C1003.88 746.349 1005.73 747.352 1008.25 748.504C1010.77 749.656 1012.82 750.723 1014.39 751.704C1016.02 752.685 1017.4 754.008 1018.55 755.672C1019.71 757.293 1020.28 759.299 1020.28 761.688C1020.28 764.333 1019.58 766.701 1018.17 768.792C1016.76 770.883 1014.74 772.525 1012.09 773.72C1009.44 774.872 1006.35 775.448 1002.81 775.448ZM1029.82 775.512C1028.12 775.512 1026.75 775.064 1025.73 774.168C1024.75 773.229 1024.25 772.056 1024.25 770.648C1024.25 768.685 1024.98 767.021 1026.43 765.656C1027.92 764.291 1029.76 763.608 1031.93 763.608C1033.6 763.608 1034.92 764.077 1035.9 765.016C1036.88 765.912 1037.37 767.085 1037.37 768.536C1037.37 770.456 1036.63 772.099 1035.13 773.464C1033.68 774.829 1031.91 775.512 1029.82 775.512ZM1072.21 767.064H1055.44L1051.34 775H1039.88L1064.08 730.072H1076.75L1085.07 775H1073.49L1072.21 767.064ZM1070.93 758.744L1068.3 742.104L1059.73 758.744H1070.93ZM1095.07 775.512C1093.37 775.512 1092 775.064 1090.98 774.168C1090 773.229 1089.5 772.056 1089.5 770.648C1089.5 768.685 1090.23 767.021 1091.68 765.656C1093.17 764.291 1095.01 763.608 1097.18 763.608C1098.85 763.608 1100.17 764.077 1101.15 765.016C1102.13 765.912 1102.62 767.085 1102.62 768.536C1102.62 770.456 1101.88 772.099 1100.38 773.464C1098.93 774.829 1097.16 775.512 1095.07 775.512ZM1125.94 775.448C1121.07 775.448 1117.1 774.403 1114.03 772.312C1111 770.179 1109.49 767.171 1109.49 763.288C1109.49 762.904 1109.53 762.328 1109.62 761.56H1121.01C1120.88 763.181 1121.26 764.461 1122.16 765.4C1123.06 766.339 1124.42 766.808 1126.26 766.808C1127.92 766.808 1129.22 766.445 1130.16 765.72C1131.14 764.995 1131.63 763.971 1131.63 762.648C1131.63 761.283 1131.01 760.173 1129.78 759.32C1128.58 758.467 1126.7 757.507 1124.14 756.44C1121.67 755.416 1119.64 754.456 1118.06 753.56C1116.53 752.621 1115.18 751.363 1114.03 749.784C1112.88 748.205 1112.3 746.221 1112.3 743.832C1112.26 740.888 1112.99 738.328 1114.48 736.152C1115.97 733.976 1118.04 732.312 1120.69 731.16C1123.33 730.008 1126.36 729.432 1129.78 729.432C1132.85 729.432 1135.58 729.923 1137.97 730.904C1140.36 731.843 1142.21 733.229 1143.53 735.064C1144.86 736.856 1145.52 738.989 1145.52 741.464C1145.52 742.104 1145.5 742.573 1145.46 742.872H1133.81C1133.85 742.701 1133.87 742.445 1133.87 742.104C1133.87 740.909 1133.44 739.949 1132.59 739.224C1131.78 738.456 1130.65 738.072 1129.2 738.072C1127.66 738.072 1126.4 738.456 1125.42 739.224C1124.48 739.949 1124.02 740.952 1124.02 742.232C1124.02 743.512 1124.61 744.6 1125.81 745.496C1127 746.349 1128.86 747.352 1131.38 748.504C1133.89 749.656 1135.94 750.723 1137.52 751.704C1139.14 752.685 1140.53 754.008 1141.68 755.672C1142.83 757.293 1143.41 759.299 1143.41 761.688C1143.41 764.333 1142.7 766.701 1141.3 768.792C1139.89 770.883 1137.86 772.525 1135.22 773.72C1132.57 774.872 1129.48 775.448 1125.94 775.448Z" fill="#004643"/>
</g>
<path d="M594.03 508.409C635.236 464.599 742.274 378.765 840.783 385.907L852.808 396.322C852.327 416.987 818.841 538.662 804.708 538.662C790.575 538.662 777.76 537.458 772.481 566.932C744.102 574.371 678.012 588.754 640.687 586.77C641.489 580.158 638.186 566.932 618.561 566.932C612.468 559.327 599.032 540.944 594.03 528.247V508.409Z" fill="#004643"/>
<path d="M865.314 401.778C862.909 422.443 849.537 480.635 815.29 548.086C848.96 534.364 917.55 497.597 922.552 460.301C919.827 442.446 911.297 404.654 898.984 396.322L878.301 385.907L865.314 401.778Z" fill="#004643"/>
<path d="M785.468 586.77C796.372 588.424 818.852 585.382 821.543 559.989C855.213 543.457 922.552 502.457 922.552 470.716C935.86 525.933 927.074 649.956 785.468 704.313C764.945 699.353 723.323 686.26 721.014 673.563C742.498 648.104 785.468 595.103 785.468 586.77Z" fill="#004643"/>
<path d="M708.989 657.693C725.022 650.419 760.167 624.463 772.481 578.835C739.292 586.44 666.468 600.856 640.687 597.682C653.033 617.685 683.977 657.693 708.989 657.693Z" fill="#004643"/>
<path d="M708.989 687.946C707.706 684.805 698.695 684.673 672.914 709.272C700.972 712.085 758.628 716.023 764.785 709.272C770.941 702.522 730.153 692.242 708.989 687.946Z" fill="#004643"/>
<path d="M608.46 597.682C610.418 600.988 617.489 607.402 630.105 606.609C643.733 623.141 675.992 659.677 696.002 673.563L658.965 704.313C628.822 694.394 563.342 660.966 542.563 606.609V578.835C561.162 585.117 600.379 597.682 608.46 597.682Z" fill="#004643"/>
<path d="M551.702 566.932C565.01 573.545 594.992 586.77 608.46 586.77C609.101 580.819 604.516 562.865 581.043 538.662L573.347 533.703C566.132 540.812 551.702 557.41 551.702 566.932Z" fill="#004643"/>
<path d="M567.094 500.474C558.917 486.256 542.563 446.612 542.563 401.778C529.576 421.947 506.199 477.56 516.589 538.662C521.72 547.755 533.039 565.345 537.272 562.964C542.563 559.989 554.107 534.695 567.094 528.247C562.444 523.949 555.935 512.377 567.094 500.474Z" fill="#004643"/>
<path d="M551.702 378.963C567.094 361.37 579.6 315.272 683.793 292.432C763.342 274.994 841.08 312.41 857.914 345.639L840.783 369.54C786.911 378.137 659.542 416.359 581.043 500.474C568.697 483.942 545.545 436.495 551.702 378.963Z" fill="#004643"/>
<path d="M537.272 578.835V592.983C533.948 588.441 526.083 574.247 521.215 553.802L532.759 566.932L537.272 578.835Z" fill="#004643"/>
<path d="M870.901 362.006V353.078C875.711 354.102 886.101 360.712 889.179 378.963L878.301 369.54L870.901 362.006Z" fill="#004643"/>
<path d="M594.03 508.409C635.236 464.599 742.274 378.765 840.783 385.907L852.808 396.322C852.327 416.987 818.841 538.662 804.708 538.662C790.575 538.662 777.76 537.458 772.481 566.932C744.102 574.371 678.012 588.754 640.687 586.77C641.489 580.158 638.186 566.932 618.561 566.932C612.468 559.327 599.032 540.944 594.03 528.247V508.409Z" stroke="#004643"/>
<path d="M865.314 401.778C862.909 422.443 849.537 480.635 815.29 548.086C848.96 534.364 917.55 497.597 922.552 460.301C919.827 442.446 911.297 404.654 898.984 396.322L878.301 385.907L865.314 401.778Z" stroke="#004643"/>
<path d="M785.468 586.77C796.372 588.424 818.852 585.382 821.543 559.989C855.213 543.457 922.552 502.457 922.552 470.716C935.86 525.933 927.074 649.956 785.468 704.313C764.945 699.353 723.323 686.26 721.014 673.563C742.498 648.104 785.468 595.103 785.468 586.77Z" stroke="#004643"/>
<path d="M708.989 657.693C725.022 650.419 760.167 624.463 772.481 578.835C739.292 586.44 666.468 600.856 640.687 597.682C653.033 617.685 683.977 657.693 708.989 657.693Z" stroke="#004643"/>
<path d="M708.989 687.946C707.706 684.805 698.695 684.673 672.914 709.272C700.972 712.085 758.628 716.023 764.785 709.272C770.941 702.522 730.153 692.242 708.989 687.946Z" stroke="#004643"/>
<path d="M608.46 597.682C610.418 600.988 617.489 607.402 630.105 606.609C643.733 623.141 675.992 659.677 696.002 673.563L658.965 704.313C628.822 694.394 563.342 660.966 542.563 606.609V578.835C561.162 585.117 600.379 597.682 608.46 597.682Z" stroke="#004643"/>
<path d="M551.702 566.932C565.01 573.545 594.992 586.77 608.46 586.77C609.101 580.819 604.516 562.865 581.043 538.662L573.347 533.703C566.132 540.812 551.702 557.41 551.702 566.932Z" stroke="#004643"/>
<path d="M567.094 500.474C558.917 486.256 542.563 446.612 542.563 401.778C529.576 421.947 506.199 477.56 516.589 538.662C521.72 547.755 533.039 565.345 537.272 562.964C542.563 559.989 554.107 534.695 567.094 528.247C562.444 523.949 555.935 512.377 567.094 500.474Z" stroke="#004643"/>
<path d="M551.702 378.963C567.094 361.37 579.6 315.272 683.793 292.432C763.342 274.994 841.08 312.41 857.914 345.639L840.783 369.54C786.911 378.137 659.542 416.359 581.043 500.474C568.697 483.942 545.545 436.495 551.702 378.963Z" stroke="#004643"/>
<path d="M537.272 578.835V592.983C533.948 588.441 526.083 574.247 521.215 553.802L532.759 566.932L537.272 578.835Z" stroke="#004643"/>
<path d="M870.901 362.006V353.078C875.711 354.102 886.101 360.712 889.179 378.963L878.301 369.54L870.901 362.006Z" stroke="#004643"/>
</g>
<defs>
<filter id="filter0_d_285_289" x="288.704" y="729.432" width="860.815" height="54.272" filterUnits="userSpaceOnUse" color-interpolation-filters="sRGB">
<feFlood flood-opacity="0" result="BackgroundImageFix"/>
<feColorMatrix in="SourceAlpha" type="matrix" values="0 0 0 0 0 0 0 0 0 0 0 0 0 0 0 0 0 0 127 0" result="hardAlpha"/>
<feOffset dy="4"/>
<feGaussianBlur stdDeviation="2"/>
<feComposite in2="hardAlpha" operator="out"/>
<feColorMatrix type="matrix" values="0 0 0 0 0.117647 0 0 0 0 0.117647 0 0 0 0 0.117647 0 0 0 1 0"/>
<feBlend mode="normal" in2="BackgroundImageFix" result="effect1_dropShadow_285_289"/>
<feBlend mode="normal" in="SourceGraphic" in2="effect1_dropShadow_285_289" result="shape"/>
</filter>
<clipPath id="clip0_285_289">
<rect width="1440" height="1024" fill="white"/>
</clipPath>
</defs>
</svg>
