<svg width="1440" height="1024" viewBox="0 0 1440 1024" fill="none" xmlns="http://www.w3.org/2000/svg">
<g clip-path="url(#clip0_285_289)">
<rect width="1440" height="1024" fill="white"/>
<g opacity="0.15">
<path d="M812.968 1085.37C855.171 1041.77 964.801 956.338 1065.69 963.446L1078.01 973.812C1077.52 994.38 1043.22 1115.48 1028.75 1115.48C1014.27 1115.48 1001.15 1114.28 995.739 1143.62C966.673 1151.02 898.984 1165.34 860.754 1163.36C861.575 1156.78 858.193 1143.62 838.093 1143.62C831.852 1136.05 818.091 1117.75 812.968 1105.12V1085.37Z" fill="#004643"/>
<path d="M1090.82 979.242C1088.36 999.81 1074.66 1057.73 1039.58 1124.86C1074.07 1111.2 1144.32 1074.61 1149.44 1037.49C1146.65 1019.72 1137.92 982.105 1125.31 973.812L1104.12 963.446L1090.82 979.242Z" fill="#004643"/>
<path d="M1009.04 1163.36C1020.21 1165.01 1043.23 1161.98 1045.99 1136.71C1080.47 1120.25 1149.44 1079.45 1149.44 1047.86C1163.07 1102.81 1154.08 1226.25 1009.04 1280.35C988.021 1275.42 945.391 1262.39 943.026 1249.75C965.031 1224.41 1009.04 1171.66 1009.04 1163.36Z" fill="#004643"/>
<path d="M930.71 1233.95C947.132 1226.71 983.128 1200.88 995.739 1155.47C961.747 1163.04 887.16 1177.38 860.754 1174.22C873.399 1194.13 905.092 1233.95 930.71 1233.95Z" fill="#004643"/>
<path d="M930.71 1264.06C929.396 1260.94 920.167 1260.81 893.762 1285.29C922.499 1288.09 981.551 1292.01 987.857 1285.29C994.163 1278.57 952.386 1268.34 930.71 1264.06Z" fill="#004643"/>
<path d="M827.747 1174.22C829.753 1177.52 836.995 1183.9 849.916 1183.11C863.874 1199.56 896.915 1235.93 917.409 1249.75L879.475 1280.35C848.602 1270.48 781.537 1237.21 760.255 1183.11V1155.47C779.304 1161.72 819.471 1174.22 827.747 1174.22Z" fill="#004643"/>
<path d="M769.615 1143.62C783.245 1150.2 813.953 1163.36 827.747 1163.36C828.404 1157.44 823.707 1139.57 799.666 1115.48L791.784 1110.55C784.394 1117.62 769.615 1134.14 769.615 1143.62Z" fill="#004643"/>
<path d="M785.38 1077.47C777.005 1063.32 760.255 1023.87 760.255 979.242C746.953 999.316 723.011 1054.67 733.652 1115.48C738.907 1124.53 750.5 1142.04 754.836 1139.67C760.255 1136.71 772.078 1111.53 785.38 1105.12C780.617 1100.84 773.95 1089.32 785.38 1077.47Z" fill="#004643"/>
<path d="M769.615 956.535C785.38 939.025 798.188 893.144 904.904 870.411C986.379 853.055 1066 890.295 1083.24 923.368L1065.69 947.156C1010.52 955.713 880.066 993.755 799.666 1077.47C787.022 1061.02 763.309 1013.8 769.615 956.535Z" fill="#004643"/>
<path d="M754.836 1155.47V1169.55C751.431 1165.03 743.375 1150.9 738.39 1130.55L750.213 1143.62L754.836 1155.47Z" fill="#004643"/>
<path d="M1096.54 939.657V930.772C1101.47 931.791 1112.11 938.37 1115.26 956.535L1104.12 947.156L1096.54 939.657Z" fill="#004643"/>
<path d="M812.968 1085.37C855.171 1041.77 964.801 956.338 1065.69 963.446L1078.01 973.812C1077.52 994.38 1043.22 1115.48 1028.75 1115.48C1014.27 1115.48 1001.15 1114.28 995.739 1143.62C966.673 1151.02 898.984 1165.34 860.754 1163.36C861.575 1156.78 858.193 1143.62 838.093 1143.62C831.852 1136.05 818.091 1117.75 812.968 1105.12V1085.37Z" stroke="#004643"/>
<path d="M1090.82 979.242C1088.36 999.81 1074.66 1057.73 1039.58 1124.86C1074.07 1111.2 1144.32 1074.61 1149.44 1037.49C1146.65 1019.72 1137.92 982.105 1125.31 973.812L1104.12 963.446L1090.82 979.242Z" stroke="#004643"/>
<path d="M1009.04 1163.36C1020.21 1165.01 1043.23 1161.98 1045.99 1136.71C1080.47 1120.25 1149.44 1079.45 1149.44 1047.86C1163.07 1102.81 1154.08 1226.25 1009.04 1280.35C988.021 1275.42 945.391 1262.39 943.026 1249.75C965.031 1224.41 1009.04 1171.66 1009.04 1163.36Z" stroke="#004643"/>
<path d="M930.71 1233.95C947.132 1226.71 983.128 1200.88 995.739 1155.47C961.747 1163.04 887.16 1177.38 860.754 1174.22C873.399 1194.13 905.092 1233.95 930.71 1233.95Z" stroke="#004643"/>
<path d="M930.71 1264.06C929.396 1260.94 920.167 1260.81 893.762 1285.29C922.499 1288.09 981.551 1292.01 987.857 1285.29C994.163 1278.57 952.386 1268.34 930.71 1264.06Z" stroke="#004643"/>
<path d="M827.747 1174.22C829.753 1177.52 836.995 1183.9 849.916 1183.11C863.874 1199.56 896.915 1235.93 917.409 1249.75L879.475 1280.35C848.602 1270.48 781.537 1237.21 760.255 1183.11V1155.47C779.304 1161.72 819.471 1174.22 827.747 1174.22Z" stroke="#004643"/>
<path d="M769.615 1143.62C783.245 1150.2 813.953 1163.36 827.747 1163.36C828.404 1157.44 823.707 1139.57 799.666 1115.48L791.784 1110.55C784.394 1117.62 769.615 1134.14 769.615 1143.62Z" stroke="#004643"/>
<path d="M785.38 1077.47C777.005 1063.32 760.255 1023.87 760.255 979.242C746.953 999.316 723.011 1054.67 733.652 1115.48C738.907 1124.53 750.5 1142.04 754.836 1139.67C760.255 1136.71 772.078 1111.53 785.38 1105.12C780.617 1100.84 773.95 1089.32 785.38 1077.47Z" stroke="#004643"/>
<path d="M769.615 956.535C785.38 939.025 798.188 893.144 904.904 870.411C986.379 853.055 1066 890.295 1083.24 923.368L1065.69 947.156C1010.52 955.713 880.066 993.755 799.666 1077.47C787.022 1061.02 763.309 1013.8 769.615 956.535Z" stroke="#004643"/>
<path d="M754.836 1155.47V1169.55C751.431 1165.03 743.375 1150.9 738.39 1130.55L750.213 1143.62L754.836 1155.47Z" stroke="#004643"/>
<path d="M1096.54 939.657V930.772C1101.47 931.791 1112.11 938.37 1115.26 956.535L1104.12 947.156L1096.54 939.657Z" stroke="#004643"/>
</g>
<g opacity="0.15">
<path d="M-74.636 719.364C-0.306293 642.568 192.777 492.106 370.475 504.625L392.166 522.882C391.299 559.107 330.894 772.396 305.4 772.396C279.906 772.396 256.79 770.285 247.267 821.952C196.075 834.992 76.8578 860.205 9.52721 856.727C10.9733 845.135 5.01537 821.952 -30.3852 821.952C-41.3756 808.621 -65.6123 776.396 -74.636 754.139V719.364Z" fill="#004643"/>
<path d="M414.725 532.445C410.387 568.67 386.266 670.678 324.489 788.915C385.225 764.862 508.954 700.411 517.977 635.033C513.06 603.735 497.674 537.488 475.462 522.882L438.152 504.625L414.725 532.445Z" fill="#004643"/>
<path d="M270.693 856.727C290.363 859.625 330.915 854.293 335.768 809.78C396.504 780.8 517.977 708.931 517.977 653.29C541.983 750.082 526.133 967.487 270.693 1062.77C233.673 1054.08 158.592 1031.13 154.427 1008.87C193.182 964.241 270.693 871.333 270.693 856.727Z" fill="#004643"/>
<path d="M132.735 981.05C161.657 968.298 225.054 922.801 247.267 842.817C187.398 856.147 56.0339 881.418 9.52721 875.854C31.7972 910.919 87.6168 981.05 132.735 981.05Z" fill="#004643"/>
<path d="M132.735 1034.08C130.421 1028.58 114.167 1028.34 67.6605 1071.47C118.274 1076.4 222.278 1083.3 233.384 1071.47C244.49 1059.63 170.912 1041.61 132.735 1034.08Z" fill="#004643"/>
<path d="M-48.6062 875.854C-45.0732 881.649 -32.3181 892.894 -9.56138 891.503C15.0224 920.482 73.2136 984.527 109.308 1008.87L42.4983 1062.77C-11.8751 1045.38 -129.993 986.787 -167.476 891.503V842.817C-133.926 853.829 -63.1829 875.854 -48.6062 875.854Z" fill="#004643"/>
<path d="M-150.99 821.952C-126.985 833.543 -72.9007 856.727 -48.6062 856.727C-47.4493 846.294 -55.721 814.823 -98.0629 772.396L-111.946 763.703C-124.96 776.164 -150.99 805.259 -150.99 821.952Z" fill="#004643"/>
<path d="M-123.225 705.454C-137.975 680.531 -167.476 611.038 -167.476 532.445C-190.903 567.801 -233.071 665.288 -214.33 772.396C-205.075 788.335 -184.656 819.169 -177.02 814.996C-167.476 809.78 -146.652 765.441 -123.225 754.139C-131.613 746.605 -143.355 726.319 -123.225 705.454Z" fill="#004643"/>
<path d="M-150.99 492.454C-123.225 461.613 -100.666 380.806 87.2847 340.769C230.781 310.201 371.01 375.789 401.378 434.038L370.475 475.935C273.296 491.005 43.5396 558.005 -98.0629 705.454C-120.333 676.474 -162.096 593.303 -150.99 492.454Z" fill="#004643"/>
<path d="M-177.02 842.817V867.618C-183.017 859.656 -197.205 834.773 -205.985 798.936L-185.161 821.952L-177.02 842.817Z" fill="#004643"/>
<path d="M424.805 462.727V447.078C433.482 448.873 452.223 460.46 457.776 492.454L438.152 475.935L424.805 462.727Z" fill="#004643"/>
<path d="M-74.636 719.364C-0.306293 642.568 192.777 492.106 370.475 504.625L392.166 522.882C391.299 559.107 330.894 772.396 305.4 772.396C279.906 772.396 256.79 770.285 247.267 821.952C196.075 834.992 76.8578 860.205 9.52721 856.727C10.9733 845.135 5.01537 821.952 -30.3852 821.952C-41.3756 808.621 -65.6123 776.396 -74.636 754.139V719.364Z" stroke="#004643"/>
<path d="M414.725 532.445C410.387 568.67 386.266 670.678 324.489 788.915C385.225 764.862 508.954 700.411 517.977 635.033C513.06 603.735 497.674 537.488 475.462 522.882L438.152 504.625L414.725 532.445Z" stroke="#004643"/>
<path d="M270.693 856.727C290.363 859.625 330.915 854.293 335.768 809.78C396.504 780.8 517.977 708.931 517.977 653.29C541.983 750.082 526.133 967.487 270.693 1062.77C233.673 1054.08 158.592 1031.13 154.427 1008.87C193.182 964.241 270.693 871.333 270.693 856.727Z" stroke="#004643"/>
<path d="M132.735 981.05C161.657 968.298 225.054 922.801 247.267 842.817C187.398 856.147 56.0339 881.418 9.52721 875.854C31.7972 910.919 87.6168 981.05 132.735 981.05Z" stroke="#004643"/>
<path d="M132.735 1034.08C130.421 1028.58 114.167 1028.34 67.6605 1071.47C118.274 1076.4 222.278 1083.3 233.384 1071.47C244.49 1059.63 170.912 1041.61 132.735 1034.08Z" stroke="#004643"/>
<path d="M-48.6062 875.854C-45.0732 881.649 -32.3181 892.894 -9.56138 891.503C15.0224 920.482 73.2136 984.527 109.308 1008.87L42.4983 1062.77C-11.8751 1045.38 -129.993 986.787 -167.476 891.503V842.817C-133.926 853.829 -63.1829 875.854 -48.6062 875.854Z" stroke="#004643"/>
<path d="M-150.99 821.952C-126.985 833.543 -72.9007 856.727 -48.6062 856.727C-47.4493 846.294 -55.721 814.823 -98.0629 772.396L-111.946 763.703C-124.96 776.164 -150.99 805.259 -150.99 821.952Z" stroke="#004643"/>
<path d="M-123.225 705.454C-137.975 680.531 -167.476 611.038 -167.476 532.445C-190.903 567.801 -233.071 665.288 -214.33 772.396C-205.075 788.335 -184.656 819.169 -177.02 814.996C-167.476 809.78 -146.652 765.441 -123.225 754.139C-131.613 746.605 -143.355 726.319 -123.225 705.454Z" stroke="#004643"/>
<path d="M-150.99 492.454C-123.225 461.613 -100.666 380.806 87.2847 340.769C230.781 310.201 371.01 375.789 401.378 434.038L370.475 475.935C273.296 491.005 43.5396 558.005 -98.0629 705.454C-120.333 676.474 -162.096 593.303 -150.99 492.454Z" stroke="#004643"/>
<path d="M-177.02 842.817V867.618C-183.017 859.656 -197.205 834.773 -205.985 798.936L-185.161 821.952L-177.02 842.817Z" stroke="#004643"/>
<path d="M424.805 462.727V447.078C433.482 448.873 452.223 460.46 457.776 492.454L438.152 475.935L424.805 462.727Z" stroke="#004643"/>
</g>
<g opacity="0.15">
<path d="M145.968 72.3717C188.171 28.7681 297.801 -56.6621 398.695 -49.5539L411.011 -39.1877C410.518 -18.62 376.222 102.483 361.747 102.483C347.271 102.483 334.147 101.284 328.739 130.619C299.673 138.024 231.984 152.339 193.754 150.364C194.575 143.783 191.193 130.619 171.093 130.619C164.852 123.051 151.091 104.754 145.968 92.1167V72.3717Z" fill="#004643"/>
<path d="M423.82 -33.7578C421.357 -13.1901 407.661 44.7286 372.585 111.862C407.07 98.2047 477.321 61.6106 482.445 24.49C479.653 6.71945 470.917 -30.8948 458.305 -39.1877L437.121 -49.5539L423.82 -33.7578Z" fill="#004643"/>
<path d="M342.041 150.364C353.209 152.01 376.234 148.982 378.989 123.709C413.474 107.254 482.445 66.4482 482.445 34.8561C496.075 89.8131 487.076 213.252 342.041 267.354C321.021 262.417 278.391 249.386 276.026 236.749C298.031 211.41 342.041 158.657 342.041 150.364Z" fill="#004643"/>
<path d="M263.71 220.953C280.132 213.713 316.128 187.88 328.739 142.466C294.747 150.035 220.16 164.383 193.754 161.224C206.399 181.134 238.092 220.953 263.71 220.953Z" fill="#004643"/>
<path d="M263.71 251.064C262.396 247.938 253.167 247.806 226.762 272.29C255.499 275.09 314.551 279.009 320.857 272.29C327.163 265.571 285.386 255.34 263.71 251.064Z" fill="#004643"/>
<path d="M160.747 161.224C162.753 164.515 169.995 170.899 182.916 170.109C196.874 186.564 229.915 222.927 250.409 236.749L212.475 267.354C181.602 257.481 114.537 224.211 93.2546 170.109V142.466C112.304 148.719 152.471 161.224 160.747 161.224Z" fill="#004643"/>
<path d="M102.615 130.619C116.245 137.201 146.953 150.364 160.747 150.364C161.404 144.441 156.707 126.572 132.666 102.483L124.784 97.5466C117.394 104.622 102.615 121.142 102.615 130.619Z" fill="#004643"/>
<path d="M118.38 64.4737C110.005 50.323 93.2546 10.8659 93.2546 -33.7578C79.9532 -13.6837 56.0106 41.6681 66.6518 102.483C71.9067 111.533 83.5002 129.04 87.8355 126.67C93.2546 123.709 105.078 98.5338 118.38 92.1167C113.617 87.8386 106.95 76.3207 118.38 64.4737Z" fill="#004643"/>
<path d="M102.615 -56.4646C118.38 -73.9752 131.188 -119.856 237.904 -142.589C319.379 -159.945 398.999 -122.705 416.242 -89.6324L398.695 -65.8435C343.519 -57.2873 213.066 -19.2453 132.666 64.4737C120.022 48.0195 96.309 0.795958 102.615 -56.4646Z" fill="#004643"/>
<path d="M87.8355 142.466V156.548C84.4308 152.028 76.3751 137.899 71.3897 117.552L83.2132 130.619L87.8355 142.466Z" fill="#004643"/>
<path d="M429.543 -73.3427V-82.228C434.47 -81.2091 445.111 -74.63 448.264 -56.4646L437.121 -65.8435L429.543 -73.3427Z" fill="#004643"/>
<path d="M145.968 72.3717C188.171 28.7681 297.801 -56.6621 398.695 -49.5539L411.011 -39.1877C410.518 -18.62 376.222 102.483 361.747 102.483C347.271 102.483 334.147 101.284 328.739 130.619C299.673 138.024 231.984 152.339 193.754 150.364C194.575 143.783 191.193 130.619 171.093 130.619C164.852 123.051 151.091 104.754 145.968 92.1167V72.3717Z" stroke="#004643"/>
<path d="M423.82 -33.7578C421.357 -13.1901 407.661 44.7286 372.585 111.862C407.07 98.2047 477.321 61.6106 482.445 24.49C479.653 6.71945 470.917 -30.8948 458.305 -39.1877L437.121 -49.5539L423.82 -33.7578Z" stroke="#004643"/>
<path d="M342.041 150.364C353.209 152.01 376.234 148.982 378.989 123.709C413.474 107.254 482.445 66.4482 482.445 34.8561C496.075 89.8131 487.076 213.252 342.041 267.354C321.021 262.417 278.391 249.386 276.026 236.749C298.031 211.41 342.041 158.657 342.041 150.364Z" stroke="#004643"/>
<path d="M263.71 220.953C280.132 213.713 316.128 187.88 328.739 142.466C294.747 150.035 220.16 164.383 193.754 161.224C206.399 181.134 238.092 220.953 263.71 220.953Z" stroke="#004643"/>
<path d="M263.71 251.064C262.396 247.938 253.167 247.806 226.762 272.29C255.499 275.09 314.551 279.009 320.857 272.29C327.163 265.571 285.386 255.34 263.71 251.064Z" stroke="#004643"/>
<path d="M160.747 161.224C162.753 164.515 169.995 170.899 182.916 170.109C196.874 186.564 229.915 222.927 250.409 236.749L212.475 267.354C181.602 257.481 114.537 224.211 93.2546 170.109V142.466C112.304 148.719 152.471 161.224 160.747 161.224Z" stroke="#004643"/>
<path d="M102.615 130.619C116.245 137.201 146.953 150.364 160.747 150.364C161.404 144.441 156.707 126.572 132.666 102.483L124.784 97.5466C117.394 104.622 102.615 121.142 102.615 130.619Z" stroke="#004643"/>
<path d="M118.38 64.4737C110.005 50.323 93.2546 10.8659 93.2546 -33.7578C79.9532 -13.6837 56.0106 41.6681 66.6518 102.483C71.9067 111.533 83.5002 129.04 87.8355 126.67C93.2546 123.709 105.078 98.5338 118.38 92.1167C113.617 87.8386 106.95 76.3207 118.38 64.4737Z" stroke="#004643"/>
<path d="M102.615 -56.4646C118.38 -73.9752 131.188 -119.856 237.904 -142.589C319.379 -159.945 398.999 -122.705 416.242 -89.6324L398.695 -65.8435C343.519 -57.2873 213.066 -19.2453 132.666 64.4737C120.022 48.0195 96.309 0.795958 102.615 -56.4646Z" stroke="#004643"/>
<path d="M87.8355 142.466V156.548C84.4308 152.028 76.3751 137.899 71.3897 117.552L83.2132 130.619L87.8355 142.466Z" stroke="#004643"/>
<path d="M429.543 -73.3427V-82.228C434.47 -81.2091 445.111 -74.63 448.264 -56.4646L437.121 -65.8435L429.543 -73.3427Z" stroke="#004643"/>
</g>
<g opacity="0.15">
<path d="M815.933 291.644C913.21 191.139 1165.9 -5.77427 1398.46 10.6099L1426.85 34.5035C1425.71 81.9114 1346.66 361.049 1313.3 361.049C1279.93 361.049 1249.68 358.285 1237.21 425.903C1170.22 442.97 1014.2 475.966 926.079 471.415C927.972 456.244 920.174 425.903 873.845 425.903C859.461 408.457 827.742 366.283 815.933 337.155V291.644Z" fill="#004643"/>
<path d="M1456.37 47.0192C1450.69 94.4271 1419.13 227.928 1338.28 382.667C1417.76 351.188 1579.69 266.84 1591.5 181.278C1585.07 140.318 1564.93 53.6184 1535.86 34.5035L1487.03 10.6099L1456.37 47.0192Z" fill="#004643"/>
<path d="M1267.87 471.415C1293.62 475.207 1346.69 468.229 1353.04 409.974C1432.53 372.048 1591.5 277.99 1591.5 205.172C1622.92 331.846 1602.17 616.369 1267.87 741.071C1219.42 729.693 1121.16 699.655 1115.71 670.528C1166.43 612.121 1267.87 490.529 1267.87 471.415Z" fill="#004643"/>
<path d="M1087.32 634.118C1125.18 617.431 1208.15 557.887 1237.21 453.21C1158.86 470.656 986.944 503.728 926.079 496.446C955.225 542.337 1028.28 634.118 1087.32 634.118Z" fill="#004643"/>
<path d="M1087.32 703.524C1084.3 696.318 1063.02 696.014 1002.16 752.449C1068.4 758.902 1204.51 767.936 1219.05 752.449C1233.58 736.961 1137.29 713.379 1087.32 703.524Z" fill="#004643"/>
<path d="M849.999 496.446C854.622 504.031 871.315 518.747 901.098 516.926C933.271 554.852 1009.43 638.67 1056.67 670.528L969.229 741.071C898.069 718.315 743.486 641.628 694.431 516.926V453.21C738.338 467.622 830.922 496.446 849.999 496.446Z" fill="#004643"/>
<path d="M716.006 425.903C747.422 441.074 818.204 471.415 849.999 471.415C851.513 457.761 840.687 416.573 785.273 361.049L767.105 349.671C750.072 365.979 716.006 404.057 716.006 425.903Z" fill="#004643"/>
<path d="M752.343 273.439C733.039 240.823 694.431 149.875 694.431 47.0192C663.772 93.2893 608.585 220.873 633.112 361.049C645.225 381.909 671.947 422.262 681.94 416.801C694.431 409.974 721.684 351.947 752.343 337.155C741.366 327.295 725.999 300.746 752.343 273.439Z" fill="#004643"/>
<path d="M716.006 -5.31915C752.343 -45.6804 781.867 -151.435 1027.84 -203.833C1215.64 -243.838 1399.16 -158.002 1438.9 -81.7697L1398.46 -26.9372C1271.28 -7.21547 970.592 80.4701 785.273 273.439C756.128 235.513 701.471 126.664 716.006 -5.31915Z" fill="#004643"/>
<path d="M681.94 453.21V485.667C674.092 475.248 655.524 442.683 644.033 395.782L671.286 425.903L681.94 453.21Z" fill="#004643"/>
<path d="M1469.56 -44.2226V-64.7029C1480.92 -62.3544 1505.45 -47.1898 1512.71 -5.31915L1487.03 -26.9372L1469.56 -44.2226Z" fill="#004643"/>
<path d="M815.933 291.644C913.21 191.139 1165.9 -5.77427 1398.46 10.6099L1426.85 34.5035C1425.71 81.9114 1346.66 361.049 1313.3 361.049C1279.93 361.049 1249.68 358.285 1237.21 425.903C1170.22 442.97 1014.2 475.966 926.079 471.415C927.972 456.244 920.174 425.903 873.845 425.903C859.461 408.457 827.742 366.283 815.933 337.155V291.644Z" stroke="#004643"/>
<path d="M1456.37 47.0192C1450.69 94.4271 1419.13 227.928 1338.28 382.667C1417.76 351.188 1579.69 266.84 1591.5 181.278C1585.07 140.318 1564.93 53.6184 1535.86 34.5035L1487.03 10.6099L1456.37 47.0192Z" stroke="#004643"/>
<path d="M1267.87 471.415C1293.62 475.207 1346.69 468.229 1353.04 409.974C1432.53 372.048 1591.5 277.99 1591.5 205.172C1622.92 331.846 1602.17 616.369 1267.87 741.071C1219.42 729.693 1121.16 699.655 1115.71 670.528C1166.43 612.121 1267.87 490.529 1267.87 471.415Z" stroke="#004643"/>
<path d="M1087.32 634.118C1125.18 617.431 1208.15 557.887 1237.21 453.21C1158.86 470.656 986.944 503.728 926.079 496.446C955.225 542.337 1028.28 634.118 1087.32 634.118Z" stroke="#004643"/>
<path d="M1087.32 703.524C1084.3 696.318 1063.02 696.014 1002.16 752.449C1068.4 758.902 1204.51 767.936 1219.05 752.449C1233.58 736.961 1137.29 713.379 1087.32 703.524Z" stroke="#004643"/>
<path d="M849.999 496.446C854.622 504.031 871.315 518.747 901.098 516.926C933.271 554.852 1009.43 638.67 1056.67 670.528L969.229 741.071C898.069 718.315 743.486 641.628 694.431 516.926V453.21C738.338 467.622 830.922 496.446 849.999 496.446Z" stroke="#004643"/>
<path d="M716.006 425.903C747.422 441.074 818.204 471.415 849.999 471.415C851.513 457.761 840.687 416.573 785.273 361.049L767.105 349.671C750.072 365.979 716.006 404.057 716.006 425.903Z" stroke="#004643"/>
<path d="M752.343 273.439C733.039 240.823 694.431 149.875 694.431 47.0192C663.772 93.2893 608.585 220.873 633.112 361.049C645.225 381.909 671.947 422.262 681.94 416.801C694.431 409.974 721.684 351.947 752.343 337.155C741.366 327.295 725.999 300.746 752.343 273.439Z" stroke="#004643"/>
<path d="M716.006 -5.31915C752.343 -45.6804 781.867 -151.435 1027.84 -203.833C1215.64 -243.838 1399.16 -158.002 1438.9 -81.7697L1398.46 -26.9372C1271.28 -7.21547 970.592 80.4701 785.273 273.439C756.128 235.513 701.471 126.664 716.006 -5.31915Z" stroke="#004643"/>
<path d="M681.94 453.21V485.667C674.092 475.248 655.524 442.683 644.033 395.782L671.286 425.903L681.94 453.21Z" stroke="#004643"/>
<path d="M1469.56 -44.2226V-64.7029C1480.92 -62.3544 1505.45 -47.1898 1512.71 -5.31915L1487.03 -26.9372L1469.56 -44.2226Z" stroke="#004643"/>
</g>
</g>
<defs>
<clipPath id="clip0_285_289">
<rect width="1440" height="1024" fill="white"/>
</clipPath>
</defs>
</svg>
