<svg xmlns="http://www.w3.org/2000/svg" width="62" height="62" fill="none" viewBox="0 0 62 62"><path fill="#004643" d="M12.6266 32.1165C18.6129 25.9316 34.1633 13.8139 48.4745 14.8221L50.2214 16.2925C50.1516 19.2099 45.2868 36.3876 43.2336 36.3876C41.1803 36.3876 39.3187 36.2175 38.5517 40.3786C34.4288 41.4289 24.8275 43.4594 19.4049 43.1794C19.5213 42.2458 19.0415 40.3786 16.1905 40.3786C15.3053 39.305 13.3534 36.7097 12.6266 34.9173V32.1165Z"/><path fill="#004643" d="M52.0383 17.0627C51.6889 19.9801 49.7463 28.1955 44.7709 37.718C49.6624 35.7808 59.6271 30.5902 60.3539 25.3248C59.9579 22.8042 58.7187 17.4688 56.9298 16.2925L53.925 14.8221L52.0383 17.0627Z"/><path fill="#004643" d="M40.4384 43.1794C42.0225 43.4128 45.2885 42.9833 45.6793 39.3984C50.5708 37.0645 60.3539 31.2763 60.3539 26.7952C62.2872 34.5905 61.0107 52.0996 40.4384 59.7736C37.4569 59.0734 31.4101 57.2249 31.0746 55.4325C34.1959 51.8382 40.4384 44.3557 40.4384 43.1794Z"/><path fill="#004643" d="M29.3277 53.1919C31.657 52.165 36.7628 48.5007 38.5517 42.0591C33.73 43.1327 23.1504 45.1679 19.4049 44.7197C21.1984 47.5438 25.694 53.1919 29.3277 53.1919Z"/><path fill="#004643" d="M29.3277 57.463C29.1413 57.0195 27.8323 57.0009 24.0868 60.4738C28.163 60.8709 36.5392 61.4268 37.4336 60.4738C38.3281 59.5207 32.4023 58.0695 29.3277 57.463Z"/><path fill="#004643" d="M14.723 44.7197C15.0075 45.1865 16.0348 46.0921 17.8675 45.9801C19.8474 48.314 24.534 53.472 27.4409 55.4325L22.0603 59.7736C17.6812 58.3732 8.16836 53.654 5.14959 45.9801V42.0591C7.85157 42.946 13.549 44.7197 14.723 44.7197Z"/><path fill="#004643" d="M6.47729 40.3786C8.41061 41.3122 12.7664 43.1794 14.723 43.1794C14.8162 42.3391 14.15 39.8045 10.7399 36.3876L9.62184 35.6875C8.57366 36.691 6.47729 39.0343 6.47729 40.3786Z"/><path fill="#004643" d="M8.71342 30.9963C7.52547 28.9891 5.14959 23.3923 5.14959 17.0627C3.26287 19.9101 -0.133245 27.7614 1.37614 36.3876C2.12151 37.6713 3.76599 40.1546 4.38093 39.8185C5.14959 39.3984 6.82669 35.8275 8.71342 34.9173C8.03792 34.3104 7.09223 32.6767 8.71342 30.9963Z"/><path fill="#004643" d="M6.47729 13.8419C8.71342 11.3581 10.5303 4.85015 25.6672 1.62565C37.224 -0.836182 48.5176 4.44606 50.9634 9.13725L48.4745 12.5116C40.648 13.7252 22.1441 19.1212 10.7399 30.9963C8.94635 28.6623 5.58284 21.964 6.47729 13.8419Z"/><path fill="#004643" d="M4.38093 42.0591V44.0565C3.89799 43.4152 2.75533 41.4113 2.04818 38.525L3.72527 40.3786L4.38093 42.0591Z"/><path fill="#004643" d="M52.8501 11.4478V10.1875C53.5489 10.332 55.0583 11.2652 55.5055 13.8419L53.925 12.5116L52.8501 11.4478Z"/><path stroke="#004643" d="M12.6266 32.1165C18.6129 25.9316 34.1633 13.8139 48.4745 14.8221L50.2214 16.2925C50.1516 19.2099 45.2868 36.3876 43.2336 36.3876C41.1803 36.3876 39.3187 36.2175 38.5517 40.3786C34.4288 41.4289 24.8275 43.4594 19.4049 43.1794C19.5213 42.2458 19.0415 40.3786 16.1905 40.3786C15.3053 39.305 13.3534 36.7097 12.6266 34.9173V32.1165Z"/><path stroke="#004643" d="M52.0383 17.0627C51.6889 19.9801 49.7463 28.1955 44.7709 37.718C49.6624 35.7808 59.6271 30.5902 60.3539 25.3248C59.9579 22.8042 58.7187 17.4688 56.9298 16.2925L53.925 14.8221L52.0383 17.0627Z"/><path stroke="#004643" d="M40.4384 43.1794C42.0225 43.4128 45.2885 42.9833 45.6793 39.3984C50.5708 37.0645 60.3539 31.2763 60.3539 26.7952C62.2872 34.5905 61.0107 52.0996 40.4384 59.7736C37.4569 59.0734 31.4101 57.2249 31.0746 55.4325C34.1959 51.8382 40.4384 44.3557 40.4384 43.1794Z"/><path stroke="#004643" d="M29.3277 53.1919C31.657 52.165 36.7628 48.5007 38.5517 42.0591C33.73 43.1327 23.1504 45.1679 19.4049 44.7197C21.1984 47.5438 25.694 53.1919 29.3277 53.1919Z"/><path stroke="#004643" d="M29.3277 57.463C29.1413 57.0195 27.8323 57.0009 24.0868 60.4738C28.163 60.8709 36.5392 61.4268 37.4336 60.4738C38.3281 59.5207 32.4023 58.0695 29.3277 57.463Z"/><path stroke="#004643" d="M14.723 44.7197C15.0075 45.1865 16.0348 46.0921 17.8675 45.9801C19.8474 48.314 24.534 53.472 27.4409 55.4325L22.0603 59.7736C17.6812 58.3732 8.16836 53.654 5.14959 45.9801V42.0591C7.85157 42.946 13.549 44.7197 14.723 44.7197Z"/><path stroke="#004643" d="M6.47729 40.3786C8.41061 41.3122 12.7664 43.1794 14.723 43.1794C14.8162 42.3391 14.15 39.8045 10.7399 36.3876L9.62184 35.6875C8.57366 36.691 6.47729 39.0343 6.47729 40.3786Z"/><path stroke="#004643" d="M8.71342 30.9963C7.52547 28.9891 5.14959 23.3923 5.14959 17.0627C3.26287 19.9101 -0.133245 27.7614 1.37614 36.3876C2.12151 37.6713 3.76599 40.1546 4.38093 39.8185C5.14959 39.3984 6.82669 35.8275 8.71342 34.9173C8.03792 34.3104 7.09223 32.6767 8.71342 30.9963Z"/><path stroke="#004643" d="M6.47729 13.8419C8.71342 11.3581 10.5303 4.85015 25.6672 1.62565C37.224 -0.836182 48.5176 4.44606 50.9634 9.13725L48.4745 12.5116C40.648 13.7252 22.1441 19.1212 10.7399 30.9963C8.94635 28.6623 5.58284 21.964 6.47729 13.8419Z"/><path stroke="#004643" d="M4.38093 42.0591V44.0565C3.89799 43.4152 2.75533 41.4113 2.04818 38.525L3.72527 40.3786L4.38093 42.0591Z"/><path stroke="#004643" d="M52.8501 11.4478V10.1875C53.5489 10.332 55.0583 11.2652 55.5055 13.8419L53.925 12.5116L52.8501 11.4478Z"/></svg>