<svg xmlns="http://www.w3.org/2000/svg" width="64" height="64" fill="none" viewBox="0 0 64 64"><circle cx="32" cy="32" r="31.5" fill="#fff" stroke="#fff"/><path fill="#004643" d="M13.6266 33.1165C19.6129 26.9316 35.1633 14.8139 49.4745 15.8221L51.2214 17.2925C51.1516 20.2099 46.2868 37.3876 44.2336 37.3876C42.1803 37.3876 40.3187 37.2175 39.5517 41.3786C35.4288 42.4289 25.8275 44.4594 20.4049 44.1794C20.5213 43.2458 20.0415 41.3786 17.1905 41.3786C16.3053 40.305 14.3534 37.7097 13.6266 35.9173V33.1165Z"/><path fill="#004643" d="M53.0383 18.0627C52.6889 20.9801 50.7463 29.1955 45.7709 38.718C50.6624 36.7808 60.6271 31.5902 61.3539 26.3248C60.9579 23.8042 59.7187 18.4688 57.9298 17.2925L54.925 15.8221L53.0383 18.0627Z"/><path fill="#004643" d="M41.4384 44.1794C43.0225 44.4128 46.2885 43.9833 46.6793 40.3984C51.5708 38.0645 61.3539 32.2763 61.3539 27.7952C63.2872 35.5905 62.0107 53.0996 41.4384 60.7736C38.4569 60.0734 32.4101 58.2249 32.0746 56.4325C35.1959 52.8382 41.4384 45.3557 41.4384 44.1794Z"/><path fill="#004643" d="M30.3277 54.1919C32.657 53.165 37.7628 49.5007 39.5517 43.0591C34.73 44.1327 24.1504 46.1679 20.4049 45.7197C22.1984 48.5438 26.694 54.1919 30.3277 54.1919Z"/><path fill="#004643" d="M30.3277 58.463C30.1413 58.0195 28.8323 58.0009 25.0868 61.4738C29.163 61.8709 37.5392 62.4268 38.4336 61.4738C39.3281 60.5207 33.4023 59.0695 30.3277 58.463Z"/><path fill="#004643" d="M15.723 45.7197C16.0075 46.1865 17.0348 47.0921 18.8675 46.9801C20.8474 49.314 25.534 54.472 28.4409 56.4325L23.0603 60.7736C18.6812 59.3732 9.16836 54.654 6.14959 46.9801V43.0591C8.85157 43.946 14.549 45.7197 15.723 45.7197Z"/><path fill="#004643" d="M7.47729 41.3786C9.41061 42.3122 13.7664 44.1794 15.723 44.1794C15.8162 43.3391 15.15 40.8045 11.7399 37.3876L10.6218 36.6875C9.57366 37.691 7.47729 40.0343 7.47729 41.3786Z"/><path fill="#004643" d="M9.71342 31.9963C8.52547 29.9891 6.14959 24.3923 6.14959 18.0627C4.26287 20.9101 0.866755 28.7614 2.37614 37.3876C3.12151 38.6713 4.76599 41.1546 5.38093 40.8185C6.14959 40.3984 7.82669 36.8275 9.71342 35.9173C9.03792 35.3104 8.09223 33.6767 9.71342 31.9963Z"/><path fill="#004643" d="M7.47729 14.8419C9.71342 12.3581 11.5303 5.85015 26.6672 2.62565C38.224 0.163818 49.5176 5.44606 51.9634 10.1372L49.4745 13.5116C41.648 14.7252 23.1441 20.1212 11.7399 31.9963C9.94635 29.6623 6.58284 22.964 7.47729 14.8419Z"/><path fill="#004643" d="M5.38093 43.0591V45.0565C4.89799 44.4152 3.75533 42.4113 3.04818 39.525L4.72527 41.3786L5.38093 43.0591Z"/><path fill="#004643" d="M53.8501 12.4478V11.1875C54.5489 11.332 56.0583 12.2652 56.5055 14.8419L54.925 13.5116L53.8501 12.4478Z"/><path stroke="#004643" d="M13.6266 33.1165C19.6129 26.9316 35.1633 14.8139 49.4745 15.8221L51.2214 17.2925C51.1516 20.2099 46.2868 37.3876 44.2336 37.3876C42.1803 37.3876 40.3187 37.2175 39.5517 41.3786C35.4288 42.4289 25.8275 44.4594 20.4049 44.1794C20.5213 43.2458 20.0415 41.3786 17.1905 41.3786C16.3053 40.305 14.3534 37.7097 13.6266 35.9173V33.1165Z"/><path stroke="#004643" d="M53.0383 18.0627C52.6889 20.9801 50.7463 29.1955 45.7709 38.718C50.6624 36.7808 60.6271 31.5902 61.3539 26.3248C60.9579 23.8042 59.7187 18.4688 57.9298 17.2925L54.925 15.8221L53.0383 18.0627Z"/><path stroke="#004643" d="M41.4384 44.1794C43.0225 44.4128 46.2885 43.9833 46.6793 40.3984C51.5708 38.0645 61.3539 32.2763 61.3539 27.7952C63.2872 35.5905 62.0107 53.0996 41.4384 60.7736C38.4569 60.0734 32.4101 58.2249 32.0746 56.4325C35.1959 52.8382 41.4384 45.3557 41.4384 44.1794Z"/><path stroke="#004643" d="M30.3277 54.1919C32.657 53.165 37.7628 49.5007 39.5517 43.0591C34.73 44.1327 24.1504 46.1679 20.4049 45.7197C22.1984 48.5438 26.694 54.1919 30.3277 54.1919Z"/><path stroke="#004643" d="M30.3277 58.463C30.1413 58.0195 28.8323 58.0009 25.0868 61.4738C29.163 61.8709 37.5392 62.4268 38.4336 61.4738C39.3281 60.5207 33.4023 59.0695 30.3277 58.463Z"/><path stroke="#004643" d="M15.723 45.7197C16.0075 46.1865 17.0348 47.0921 18.8675 46.9801C20.8474 49.314 25.534 54.472 28.4409 56.4325L23.0603 60.7736C18.6812 59.3732 9.16836 54.654 6.14959 46.9801V43.0591C8.85157 43.946 14.549 45.7197 15.723 45.7197Z"/><path stroke="#004643" d="M7.47729 41.3786C9.41061 42.3122 13.7664 44.1794 15.723 44.1794C15.8162 43.3391 15.15 40.8045 11.7399 37.3876L10.6218 36.6875C9.57366 37.691 7.47729 40.0343 7.47729 41.3786Z"/><path stroke="#004643" d="M9.71342 31.9963C8.52547 29.9891 6.14959 24.3923 6.14959 18.0627C4.26287 20.9101 0.866755 28.7614 2.37614 37.3876C3.12151 38.6713 4.76599 41.1546 5.38093 40.8185C6.14959 40.3984 7.82669 36.8275 9.71342 35.9173C9.03792 35.3104 8.09223 33.6767 9.71342 31.9963Z"/><path stroke="#004643" d="M7.47729 14.8419C9.71342 12.3581 11.5303 5.85015 26.6672 2.62565C38.224 0.163818 49.5176 5.44606 51.9634 10.1372L49.4745 13.5116C41.648 14.7252 23.1441 20.1212 11.7399 31.9963C9.94635 29.6623 6.58284 22.964 7.47729 14.8419Z"/><path stroke="#004643" d="M5.38093 43.0591V45.0565C4.89799 44.4152 3.75533 42.4113 3.04818 39.525L4.72527 41.3786L5.38093 43.0591Z"/><path stroke="#004643" d="M53.8501 12.4478V11.1875C54.5489 11.332 56.0583 12.2652 56.5055 14.8419L54.925 13.5116L53.8501 12.4478Z"/></svg>